<svg width="411" height="288" viewBox="0 0 411 288" fill="none"
  xmlns="http://www.w3.org/2000/svg">
  <path fill-rule="evenodd" clip-rule="evenodd" d="M163.508 1.31673C157.036 0.447702 150.428 0 143.711 0C64.3543 0 0 62.5055 0 144C0 225.495 64.3543 288 143.711 288C151.649 288 159.488 287.311 167.159 286.02H276.803C355.288 286.02 411 222.047 411 143.405C411 64.7623 355.288 0.789129 276.803 0.789129H167.006C165.686 0.789129 164.517 0.967112 163.508 1.31673ZM287.423 144C287.423 179.209 275.184 211.253 254.654 235.78L274.625 259.127H276.803C340.242 259.127 383.347 207.378 383.347 143.405C383.347 79.4313 340.242 27.6823 276.803 27.6823H229.218C264.532 53.5456 287.423 95.3955 287.423 144ZM62.7751 144C62.7751 193.451 98.3081 226.286 143.317 226.286C150.423 226.286 157.135 225.495 163.452 223.912L142.132 199.78C137.789 194.637 138.184 190.286 143.317 185.934L174.507 159.824C179.639 155.473 184.377 156.264 188.325 161.011L212.409 188.308C219.91 175.648 223.858 160.615 223.858 144C223.858 94.5495 188.325 61.7143 143.317 61.7143C98.3081 61.7143 62.7751 94.5495 62.7751 144Z" fill="white"/>
</svg>
  