<svg width="500" height="500" viewBox="0 0 500 500" fill="none"
  xmlns="http://www.w3.org/2000/svg">
  <rect width="500" height="500" rx="103" fill="#384B78"/>
  <path fill-rule="evenodd" clip-rule="evenodd" d="M207.508 107.317C201.036 106.448 194.428 106 187.711 106C108.354 106 44 168.506 44 250C44 331.495 108.354 394 187.711 394C195.649 394 203.488 393.311 211.159 392.02H320.803C399.288 392.02 455 328.047 455 249.405C455 170.762 399.288 106.789 320.803 106.789H211.006C209.686 106.789 208.517 106.967 207.508 107.317ZM331.423 250C331.423 285.209 319.184 317.253 298.654 341.78L318.625 365.127H320.803C384.242 365.127 427.347 313.378 427.347 249.405C427.347 185.431 384.242 133.682 320.803 133.682H273.218C308.532 159.546 331.423 201.396 331.423 250ZM106.775 250C106.775 299.451 142.308 332.286 187.317 332.286C194.423 332.286 201.135 331.495 207.452 329.912L186.132 305.78C181.789 300.637 182.184 296.286 187.317 291.934L218.507 265.824C223.639 261.473 228.377 262.264 232.325 267.011L256.409 294.308C263.91 281.648 267.858 266.615 267.858 250C267.858 200.549 232.325 167.714 187.317 167.714C142.308 167.714 106.775 200.549 106.775 250Z" fill="white"/>
</svg>
  