<svg width="926" height="819" viewBox="0 0 926 819" fill="none"
  xmlns="http://www.w3.org/2000/svg">
  <path d="M411.5 414C191.924 385.046 103.855 397.083 0 461.5C0 461.5 25.1511 460.535 69.501 445C158.001 414 390.82 445.869 481 461.5C706 500.5 808.638 483.78 925.5 395C860.229 417.079 831.869 433.843 724.5 433.5C602.412 430.394 533.919 427.32 411.5 414Z" fill="white"/>
  <path fill-rule="evenodd" clip-rule="evenodd" d="M768.589 408.893C776.67 380.67 781 350.845 781 320C781 143.269 638.85 0 463.5 0C288.15 0 146 143.269 146 320C146 341.004 148.008 361.535 151.84 381.409C162.039 379.723 172.606 378.383 183.631 377.38C184.591 336.284 189.95 272.958 193.234 263.132C192.375 259.379 191.409 256.177 190.567 253.382C188.035 244.982 186.611 240.259 192.509 235.312C200.37 228.719 213.447 249.114 213.447 249.114C213.447 249.114 397.357 251.613 427.894 258.894C438.761 250.418 447.237 247.411 452.309 250.128C457.38 252.845 451.729 279.107 441.659 286.352C445.01 294.828 446.286 354.281 442.75 392.438C457.473 393.968 471.438 395.343 484.864 396.585C480.823 358.754 482.067 295.141 485.542 286.352C475.472 279.107 469.821 252.845 474.892 250.128C479.964 247.411 488.44 250.418 499.307 258.894C529.844 251.613 713.754 249.114 713.754 249.114C713.754 249.114 726.831 228.719 734.692 235.312C740.59 240.259 739.166 244.982 736.634 253.382C735.792 256.177 734.826 259.379 733.967 263.132C738.426 276.473 746.709 388.438 742.615 409.483C751.857 409.419 760.487 409.22 768.589 408.893Z" fill="white"/>
  <path d="M719.912 230.513C720.036 230.47 720.168 230.453 720.298 230.464C720.429 230.475 720.556 230.513 720.671 230.576C720.786 230.638 720.886 230.724 720.966 230.828C721.046 230.932 721.104 231.051 721.135 231.178C721.166 231.306 721.17 231.438 721.147 231.567C721.124 231.696 721.075 231.819 721.002 231.928C720.929 232.036 720.834 232.129 720.723 232.199C720.612 232.268 720.488 232.314 720.358 232.334C720.126 232.368 719.89 232.315 719.695 232.184C719.5 232.053 719.362 231.854 719.306 231.626C719.25 231.399 719.281 231.158 719.394 230.952C719.506 230.746 719.691 230.589 719.912 230.513V230.513Z" fill="black"/>
  <path d="M362.806 143.389C362.806 143.732 362.704 144.067 362.513 144.352C362.323 144.637 362.052 144.86 361.735 144.991C361.418 145.122 361.069 145.157 360.733 145.09C360.396 145.023 360.087 144.857 359.845 144.615C359.602 144.372 359.437 144.063 359.37 143.727C359.303 143.391 359.338 143.042 359.469 142.725C359.6 142.408 359.822 142.137 360.108 141.947C360.393 141.756 360.728 141.654 361.071 141.654C361.531 141.654 361.972 141.837 362.298 142.162C362.623 142.488 362.806 142.929 362.806 143.389V143.389Z" fill="black"/>
  <path opacity="0.7" d="M362.806 143.389C362.806 143.732 362.704 144.067 362.513 144.352C362.323 144.637 362.052 144.86 361.735 144.991C361.418 145.122 361.069 145.157 360.733 145.09C360.396 145.023 360.087 144.857 359.845 144.615C359.602 144.372 359.437 144.063 359.37 143.727C359.303 143.391 359.338 143.042 359.469 142.725C359.6 142.408 359.822 142.137 360.108 141.947C360.393 141.756 360.728 141.654 361.071 141.654C361.531 141.654 361.972 141.837 362.298 142.162C362.623 142.488 362.806 142.929 362.806 143.389V143.389Z" fill="black"/>
  <path d="M436.514 79.7149C436.148 79.7769 435.772 79.7286 435.433 79.5763C435.095 79.4239 434.809 79.1744 434.613 78.8594C434.417 78.5444 434.319 78.1782 434.332 77.8073C434.344 77.4364 434.467 77.0777 434.684 76.7767C434.901 76.4756 435.202 76.246 435.55 76.1169C435.898 75.9878 436.277 75.965 436.638 76.0516C436.998 76.1382 437.325 76.3301 437.577 76.603C437.828 76.8759 437.993 77.2174 438.05 77.5842C438.09 77.8251 438.083 78.0717 438.027 78.3097C437.972 78.5477 437.87 78.7723 437.727 78.9705C437.584 79.1687 437.403 79.3366 437.195 79.4643C436.987 79.5921 436.755 79.6773 436.514 79.7149V79.7149Z" fill="black"/>
  <path opacity="0.7" d="M436.514 79.7149C436.148 79.7769 435.772 79.7286 435.433 79.5763C435.095 79.4239 434.809 79.1744 434.613 78.8594C434.417 78.5444 434.319 78.1782 434.332 77.8073C434.344 77.4364 434.467 77.0777 434.684 76.7767C434.901 76.4756 435.202 76.246 435.55 76.1169C435.898 75.9878 436.277 75.965 436.638 76.0516C436.998 76.1382 437.325 76.3301 437.577 76.603C437.828 76.8759 437.993 77.2174 438.05 77.5842C438.09 77.8251 438.083 78.0717 438.027 78.3097C437.972 78.5477 437.87 78.7723 437.727 78.9705C437.584 79.1687 437.403 79.3366 437.195 79.4643C436.987 79.5921 436.755 79.6773 436.514 79.7149V79.7149Z" fill="black"/>
  <path d="M726.082 235.431C726.441 235.341 726.819 235.359 727.168 235.484C727.517 235.609 727.821 235.835 728.041 236.133C728.262 236.431 728.388 236.788 728.406 237.158C728.423 237.528 728.33 237.895 728.138 238.213C727.946 238.53 727.665 238.783 727.329 238.94C726.993 239.097 726.618 239.15 726.252 239.094C725.886 239.037 725.544 238.873 725.271 238.623C724.999 238.372 724.806 238.046 724.719 237.685C724.606 237.206 724.686 236.702 724.94 236.28C725.195 235.859 725.605 235.554 726.082 235.431V235.431Z" fill="black"/>
  <path opacity="0.7" d="M726.082 235.431C726.441 235.341 726.819 235.359 727.168 235.484C727.517 235.609 727.821 235.835 728.041 236.133C728.262 236.431 728.388 236.788 728.406 237.158C728.423 237.528 728.33 237.895 728.138 238.213C727.946 238.53 727.665 238.783 727.329 238.94C726.993 239.097 726.618 239.15 726.252 239.094C725.886 239.037 725.544 238.873 725.271 238.623C724.999 238.372 724.806 238.046 724.719 237.685C724.606 237.206 724.686 236.702 724.94 236.28C725.195 235.859 725.605 235.554 726.082 235.431V235.431Z" fill="black"/>
  <path d="M231.283 182.696C231.437 183.002 231.497 183.347 231.456 183.688C231.414 184.028 231.272 184.349 231.048 184.609C230.824 184.869 230.528 185.056 230.198 185.148C229.867 185.24 229.517 185.231 229.191 185.124C228.865 185.016 228.579 184.815 228.368 184.544C228.156 184.274 228.03 183.947 228.005 183.605C227.979 183.263 228.056 182.921 228.225 182.622C228.394 182.324 228.648 182.082 228.954 181.928C229.365 181.724 229.84 181.691 230.276 181.834C230.712 181.978 231.073 182.288 231.283 182.696V182.696Z" fill="black"/>
  <path opacity="0.7" d="M231.283 182.696C231.437 183.002 231.497 183.347 231.456 183.688C231.414 184.028 231.272 184.349 231.048 184.609C230.824 184.869 230.528 185.056 230.198 185.148C229.867 185.24 229.517 185.231 229.191 185.124C228.865 185.016 228.579 184.815 228.368 184.544C228.156 184.274 228.03 183.947 228.005 183.605C227.979 183.263 228.056 182.921 228.225 182.622C228.394 182.324 228.648 182.082 228.954 181.928C229.365 181.724 229.84 181.691 230.276 181.834C230.712 181.978 231.073 182.288 231.283 182.696V182.696Z" fill="black"/>
  <path d="M628.514 171.187C628.871 171.103 629.245 171.126 629.589 171.253C629.933 171.381 630.231 171.607 630.447 171.904C630.662 172.2 630.785 172.554 630.8 172.921C630.815 173.287 630.72 173.65 630.53 173.963C630.339 174.276 630.059 174.526 629.727 174.68C629.394 174.835 629.023 174.888 628.661 174.832C628.298 174.776 627.961 174.615 627.69 174.367C627.419 174.12 627.228 173.798 627.139 173.442C627.08 173.204 627.069 172.956 627.107 172.713C627.144 172.47 627.229 172.237 627.357 172.028C627.485 171.818 627.653 171.636 627.851 171.492C628.05 171.347 628.276 171.244 628.514 171.187V171.187Z" fill="black"/>
  <path opacity="0.7" d="M628.514 171.187C628.871 171.103 629.245 171.126 629.589 171.253C629.933 171.381 630.231 171.607 630.447 171.904C630.662 172.2 630.785 172.554 630.8 172.921C630.815 173.287 630.72 173.65 630.53 173.963C630.339 174.276 630.059 174.526 629.727 174.68C629.394 174.835 629.023 174.888 628.661 174.832C628.298 174.776 627.961 174.615 627.69 174.367C627.419 174.12 627.228 173.798 627.139 173.442C627.08 173.204 627.069 172.956 627.107 172.713C627.144 172.47 627.229 172.237 627.357 172.028C627.485 171.818 627.653 171.636 627.851 171.492C628.05 171.347 628.276 171.244 628.514 171.187V171.187Z" fill="black"/>
  <path d="M357.751 84.2487C358.111 84.1609 358.488 84.1818 358.836 84.3087C359.184 84.4357 359.486 84.663 359.705 84.9619C359.923 85.2608 360.048 85.6178 360.064 85.9877C360.079 86.3576 359.985 86.7238 359.792 87.0399C359.599 87.356 359.317 87.6077 358.981 87.7633C358.645 87.9189 358.27 87.9713 357.905 87.9138C357.539 87.8563 357.198 87.6916 356.926 87.4405C356.654 87.1895 356.463 86.8633 356.376 86.5033C356.26 86.022 356.34 85.5145 356.598 85.0919C356.856 84.6693 357.27 84.3661 357.751 84.2487V84.2487Z" fill="black"/>
  <path opacity="0.7" d="M357.751 84.2487C358.111 84.1609 358.488 84.1818 358.836 84.3087C359.184 84.4357 359.486 84.663 359.705 84.9619C359.923 85.2608 360.048 85.6178 360.064 85.9877C360.079 86.3576 359.985 86.7238 359.792 87.0399C359.599 87.356 359.317 87.6077 358.981 87.7633C358.645 87.9189 358.27 87.9713 357.905 87.9138C357.539 87.8563 357.198 87.6916 356.926 87.4405C356.654 87.1895 356.463 86.8633 356.376 86.5033C356.26 86.022 356.34 85.5145 356.598 85.0919C356.856 84.6693 357.27 84.3661 357.751 84.2487V84.2487Z" fill="black"/>
  <path d="M673.767 217.184C673.767 217.527 673.666 217.862 673.475 218.147C673.285 218.432 673.014 218.655 672.697 218.786C672.38 218.917 672.031 218.951 671.695 218.885C671.358 218.818 671.049 218.652 670.807 218.41C670.564 218.167 670.399 217.858 670.332 217.522C670.265 217.185 670.3 216.837 670.431 216.52C670.562 216.203 670.784 215.932 671.07 215.742C671.355 215.551 671.69 215.449 672.033 215.449C672.493 215.449 672.934 215.632 673.26 215.957C673.585 216.282 673.767 216.724 673.767 217.184Z" fill="black"/>
  <path opacity="0.7" d="M673.767 217.184C673.767 217.527 673.666 217.862 673.475 218.147C673.285 218.432 673.014 218.655 672.697 218.786C672.38 218.917 672.031 218.951 671.695 218.885C671.358 218.818 671.049 218.652 670.807 218.41C670.564 218.167 670.399 217.858 670.332 217.522C670.265 217.185 670.3 216.837 670.431 216.52C670.562 216.203 670.784 215.932 671.07 215.742C671.355 215.551 671.69 215.449 672.033 215.449C672.493 215.449 672.934 215.632 673.26 215.957C673.585 216.282 673.767 216.724 673.767 217.184Z" fill="black"/>
  <path d="M680.246 179.549C680.249 179.939 680.135 180.321 679.92 180.647C679.705 180.972 679.399 181.227 679.039 181.378C678.679 181.529 678.283 181.569 677.9 181.495C677.517 181.42 677.165 181.234 676.888 180.959C676.611 180.684 676.423 180.333 676.346 179.95C676.269 179.568 676.307 179.171 676.456 178.811C676.604 178.45 676.857 178.142 677.181 177.925C677.505 177.708 677.886 177.592 678.277 177.592C678.797 177.592 679.296 177.798 679.665 178.164C680.034 178.531 680.243 179.029 680.246 179.549V179.549Z" fill="black"/>
  <path opacity="0.7" d="M680.246 179.549C680.249 179.939 680.135 180.321 679.92 180.647C679.705 180.972 679.399 181.227 679.039 181.378C678.679 181.529 678.283 181.569 677.9 181.495C677.517 181.42 677.165 181.234 676.888 180.959C676.611 180.684 676.423 180.333 676.346 179.95C676.269 179.568 676.307 179.171 676.456 178.811C676.604 178.45 676.857 178.142 677.181 177.925C677.505 177.708 677.886 177.592 678.277 177.592C678.797 177.592 679.296 177.798 679.665 178.164C680.034 178.531 680.243 179.029 680.246 179.549V179.549Z" fill="black"/>
  <path d="M674.374 184.913C674.377 185.147 674.309 185.376 674.181 185.572C674.053 185.767 673.869 185.92 673.653 186.01C673.438 186.101 673.2 186.125 672.971 186.08C672.741 186.035 672.531 185.923 672.365 185.758C672.2 185.592 672.088 185.381 672.043 185.152C671.998 184.923 672.022 184.685 672.112 184.469C672.203 184.254 672.356 184.07 672.551 183.942C672.747 183.813 672.976 183.746 673.21 183.749C673.518 183.752 673.812 183.876 674.03 184.093C674.247 184.311 674.371 184.605 674.374 184.913V184.913Z" fill="black"/>
  <path opacity="0.7" d="M674.374 184.913C674.377 185.147 674.309 185.376 674.181 185.572C674.053 185.767 673.869 185.92 673.653 186.01C673.438 186.101 673.2 186.125 672.971 186.08C672.741 186.035 672.531 185.923 672.365 185.758C672.2 185.592 672.088 185.381 672.043 185.152C671.998 184.923 672.022 184.685 672.112 184.469C672.203 184.254 672.356 184.07 672.551 183.942C672.747 183.813 672.976 183.746 673.21 183.749C673.518 183.752 673.812 183.876 674.03 184.093C674.247 184.311 674.371 184.605 674.374 184.913V184.913Z" fill="black"/>
  <path d="M314.802 147.861C314.443 147.771 314.065 147.789 313.716 147.914C313.367 148.039 313.063 148.265 312.843 148.563C312.622 148.861 312.496 149.218 312.478 149.588C312.461 149.959 312.554 150.326 312.746 150.643C312.938 150.96 313.219 151.213 313.555 151.37C313.891 151.527 314.266 151.58 314.632 151.524C314.998 151.467 315.34 151.303 315.613 151.053C315.886 150.802 316.078 150.476 316.165 150.116C316.278 149.636 316.198 149.132 315.944 148.71C315.689 148.289 315.279 147.984 314.802 147.861V147.861Z" fill="black"/>
  <path opacity="0.7" d="M314.802 147.861C314.443 147.771 314.065 147.789 313.716 147.914C313.367 148.039 313.063 148.265 312.843 148.563C312.622 148.861 312.496 149.218 312.478 149.588C312.461 149.959 312.554 150.326 312.746 150.643C312.938 150.96 313.219 151.213 313.555 151.37C313.891 151.527 314.266 151.58 314.632 151.524C314.998 151.467 315.34 151.303 315.613 151.053C315.886 150.802 316.078 150.476 316.165 150.116C316.278 149.636 316.198 149.132 315.944 148.71C315.689 148.289 315.279 147.984 314.802 147.861V147.861Z" fill="black"/>
  <path d="M555.376 193.064C555.222 193.37 555.162 193.715 555.203 194.056C555.245 194.396 555.387 194.717 555.611 194.977C555.835 195.237 556.131 195.424 556.461 195.516C556.792 195.608 557.142 195.599 557.468 195.492C557.794 195.384 558.08 195.183 558.291 194.912C558.503 194.642 558.629 194.315 558.654 193.973C558.68 193.631 558.603 193.289 558.434 192.99C558.265 192.692 558.011 192.45 557.705 192.296C557.294 192.089 556.818 192.054 556.382 192.198C555.945 192.342 555.583 192.653 555.376 193.064Z" fill="black"/>
  <path opacity="0.7" d="M555.376 193.064C555.222 193.37 555.162 193.715 555.203 194.056C555.245 194.396 555.387 194.717 555.611 194.977C555.835 195.237 556.131 195.424 556.461 195.516C556.792 195.608 557.142 195.599 557.468 195.492C557.794 195.384 558.08 195.183 558.291 194.912C558.503 194.642 558.629 194.315 558.654 193.973C558.68 193.631 558.603 193.289 558.434 192.99C558.265 192.692 558.011 192.45 557.705 192.296C557.294 192.089 556.818 192.054 556.382 192.198C555.945 192.342 555.583 192.653 555.376 193.064Z" fill="black"/>
  <path d="M440.986 178.979C440.778 179.389 440.741 179.863 440.883 180.3C441.024 180.737 441.333 181.099 441.742 181.308C442.152 181.517 442.629 181.554 443.067 181.411C443.284 181.34 443.484 181.228 443.658 181.079C443.831 180.931 443.973 180.75 444.077 180.546C444.18 180.343 444.242 180.121 444.26 179.894C444.277 179.667 444.25 179.438 444.179 179.221C444.109 179.004 443.996 178.803 443.847 178.63C443.699 178.457 443.518 178.315 443.315 178.211C442.904 178.004 442.428 177.969 441.991 178.113C441.555 178.257 441.193 178.569 440.986 178.979V178.979Z" fill="black"/>
  <path opacity="0.7" d="M440.986 178.979C440.778 179.389 440.741 179.863 440.883 180.3C441.024 180.737 441.333 181.099 441.742 181.308C442.152 181.517 442.629 181.554 443.067 181.411C443.284 181.34 443.484 181.228 443.658 181.079C443.831 180.931 443.973 180.75 444.077 180.546C444.18 180.343 444.242 180.121 444.26 179.894C444.277 179.667 444.25 179.438 444.179 179.221C444.109 179.004 443.996 178.803 443.847 178.63C443.699 178.457 443.518 178.315 443.315 178.211C442.904 178.004 442.428 177.969 441.991 178.113C441.555 178.257 441.193 178.569 440.986 178.979V178.979Z" fill="black"/>
  <path d="M621.391 135.856C621.391 136.2 621.289 136.536 621.098 136.821C620.907 137.107 620.635 137.329 620.318 137.46C620 137.591 619.651 137.624 619.314 137.556C618.977 137.489 618.668 137.322 618.426 137.078C618.184 136.835 618.02 136.524 617.954 136.187C617.889 135.85 617.925 135.501 618.058 135.184C618.191 134.867 618.416 134.597 618.702 134.408C618.989 134.219 619.326 134.12 619.669 134.122C620.127 134.125 620.565 134.31 620.888 134.634C621.21 134.959 621.391 135.399 621.391 135.856V135.856Z" fill="black"/>
  <path opacity="0.8" d="M621.391 135.856C621.391 136.2 621.289 136.536 621.098 136.821C620.907 137.107 620.635 137.329 620.318 137.46C620 137.591 619.651 137.624 619.314 137.556C618.977 137.489 618.668 137.322 618.426 137.078C618.184 136.835 618.02 136.524 617.954 136.187C617.889 135.85 617.925 135.501 618.058 135.184C618.191 134.867 618.416 134.597 618.702 134.408C618.989 134.219 619.326 134.12 619.669 134.122C620.127 134.125 620.565 134.31 620.888 134.634C621.21 134.959 621.391 135.399 621.391 135.856V135.856Z" fill="black"/>
  <path d="M444.529 81.5975C444.347 81.6246 444.162 81.5974 443.996 81.5193C443.83 81.4413 443.691 81.3159 443.596 81.1589C443.502 81.002 443.455 80.8205 443.463 80.6373C443.472 80.4541 443.534 80.2775 443.642 80.1296C443.75 79.9816 443.9 79.8691 444.072 79.8061C444.245 79.7431 444.432 79.7324 444.61 79.7755C444.788 79.8185 444.949 79.9133 445.074 80.048C445.198 80.1827 445.28 80.3511 445.309 80.5322C445.328 80.6535 445.324 80.7774 445.295 80.8967C445.266 81.0161 445.214 81.1286 445.141 81.2277C445.069 81.3267 444.977 81.4104 444.872 81.4739C444.767 81.5374 444.65 81.5794 444.529 81.5975V81.5975Z" fill="black"/>
  <path opacity="0.8" d="M444.529 81.5975C444.347 81.6246 444.162 81.5974 443.996 81.5193C443.83 81.4413 443.691 81.3159 443.596 81.1589C443.502 81.002 443.455 80.8205 443.463 80.6373C443.472 80.4541 443.534 80.2775 443.642 80.1296C443.75 79.9816 443.9 79.8691 444.072 79.8061C444.245 79.7431 444.432 79.7324 444.61 79.7755C444.788 79.8185 444.949 79.9133 445.074 80.048C445.198 80.1827 445.28 80.3511 445.309 80.5322C445.328 80.6535 445.324 80.7774 445.295 80.8967C445.266 81.0161 445.214 81.1286 445.141 81.2277C445.069 81.3267 444.977 81.4104 444.872 81.4739C444.767 81.5374 444.65 81.5794 444.529 81.5975V81.5975Z" fill="black"/>
  <path opacity="0.8" d="M719.912 230.513C720.036 230.47 720.168 230.453 720.298 230.464C720.429 230.475 720.556 230.513 720.671 230.576C720.786 230.638 720.886 230.724 720.966 230.828C721.046 230.932 721.104 231.051 721.135 231.178C721.166 231.306 721.17 231.438 721.147 231.567C721.124 231.696 721.075 231.819 721.002 231.928C720.929 232.036 720.834 232.129 720.723 232.199C720.612 232.268 720.488 232.314 720.358 232.334C720.126 232.368 719.89 232.315 719.695 232.184C719.5 232.053 719.362 231.854 719.306 231.626C719.25 231.399 719.281 231.158 719.394 230.952C719.506 230.746 719.691 230.589 719.912 230.513V230.513Z" fill="black"/>
  <path d="M548.637 197.648C548.869 197.613 549.106 197.667 549.3 197.798C549.495 197.929 549.634 198.127 549.69 198.355C549.745 198.583 549.714 198.824 549.602 199.03C549.49 199.236 549.305 199.392 549.083 199.469C548.851 199.503 548.614 199.45 548.42 199.319C548.225 199.188 548.086 198.989 548.03 198.762C547.975 198.534 548.006 198.293 548.118 198.087C548.23 197.881 548.415 197.725 548.637 197.648V197.648Z" fill="black"/>
  <path opacity="0.8" d="M548.637 197.648C548.869 197.613 549.106 197.667 549.3 197.798C549.495 197.929 549.634 198.127 549.69 198.355C549.745 198.583 549.714 198.824 549.602 199.03C549.49 199.236 549.305 199.392 549.083 199.469C548.851 199.503 548.614 199.45 548.42 199.319C548.225 199.188 548.086 198.989 548.03 198.762C547.975 198.534 548.006 198.293 548.118 198.087C548.23 197.881 548.415 197.725 548.637 197.648V197.648Z" fill="black"/>
  <path d="M482.461 200.881C482.621 201.187 482.686 201.534 482.648 201.877C482.61 202.22 482.471 202.545 482.248 202.808C482.024 203.071 481.727 203.262 481.395 203.356C481.062 203.449 480.71 203.442 480.382 203.334C480.054 203.225 479.765 203.022 479.554 202.749C479.342 202.476 479.217 202.146 479.194 201.801C479.171 201.457 479.252 201.113 479.426 200.814C479.599 200.516 479.858 200.276 480.169 200.125C480.574 199.929 481.04 199.898 481.468 200.039C481.895 200.18 482.252 200.482 482.461 200.881Z" fill="black"/>
  <path opacity="0.8" d="M482.461 200.881C482.621 201.187 482.686 201.534 482.648 201.877C482.61 202.22 482.471 202.545 482.248 202.808C482.024 203.071 481.727 203.262 481.395 203.356C481.062 203.449 480.71 203.442 480.382 203.334C480.054 203.225 479.765 203.022 479.554 202.749C479.342 202.476 479.217 202.146 479.194 201.801C479.171 201.457 479.252 201.113 479.426 200.814C479.599 200.516 479.858 200.276 480.169 200.125C480.574 199.929 481.04 199.898 481.468 200.039C481.895 200.18 482.252 200.482 482.461 200.881Z" fill="black"/>
  <path d="M620.363 170.01C620.482 169.979 620.606 169.972 620.728 169.989C620.849 170.007 620.966 170.049 621.071 170.112C621.176 170.176 621.268 170.26 621.34 170.359C621.412 170.459 621.463 170.572 621.49 170.692C621.55 170.931 621.511 171.185 621.383 171.396C621.256 171.608 621.049 171.76 620.809 171.819C620.569 171.878 620.316 171.84 620.104 171.712C619.893 171.584 619.741 171.377 619.682 171.138C619.652 171.019 619.646 170.895 619.665 170.774C619.683 170.653 619.725 170.537 619.788 170.432C619.852 170.328 619.935 170.236 620.034 170.164C620.132 170.092 620.244 170.039 620.363 170.01V170.01Z" fill="black"/>
  <path opacity="0.8" d="M620.363 170.01C620.482 169.979 620.606 169.972 620.728 169.989C620.849 170.007 620.966 170.049 621.071 170.112C621.176 170.176 621.268 170.26 621.34 170.359C621.412 170.459 621.463 170.572 621.49 170.692C621.55 170.931 621.511 171.185 621.383 171.396C621.256 171.608 621.049 171.76 620.809 171.819C620.569 171.878 620.316 171.84 620.104 171.712C619.893 171.584 619.741 171.377 619.682 171.138C619.652 171.019 619.646 170.895 619.665 170.774C619.683 170.653 619.725 170.537 619.788 170.432C619.852 170.328 619.935 170.236 620.034 170.164C620.132 170.092 620.244 170.039 620.363 170.01V170.01Z" fill="black"/>
  <path d="M349.6 83.0718C349.781 83.0251 349.972 83.0334 350.148 83.0957C350.325 83.1579 350.479 83.2713 350.59 83.4214C350.702 83.5715 350.766 83.7514 350.775 83.9382C350.784 84.1251 350.738 84.3104 350.641 84.4705C350.544 84.6306 350.402 84.7582 350.232 84.8371C350.063 84.916 349.873 84.9426 349.689 84.9135C349.504 84.8844 349.332 84.8009 349.195 84.6736C349.058 84.5464 348.961 84.3812 348.919 84.1991C348.862 83.9594 348.902 83.7072 349.029 83.4965C349.157 83.2858 349.362 83.1333 349.6 83.0718V83.0718Z" fill="black"/>
  <path opacity="0.8" d="M349.6 83.0718C349.781 83.0251 349.972 83.0334 350.148 83.0957C350.325 83.1579 350.479 83.2713 350.59 83.4214C350.702 83.5715 350.766 83.7514 350.775 83.9382C350.784 84.1251 350.738 84.3104 350.641 84.4705C350.544 84.6306 350.402 84.7582 350.232 84.8371C350.063 84.916 349.873 84.9426 349.689 84.9135C349.504 84.8844 349.332 84.8009 349.195 84.6736C349.058 84.5464 348.961 84.3812 348.919 84.1991C348.862 83.9594 348.902 83.7072 349.029 83.4965C349.157 83.2858 349.362 83.1333 349.6 83.0718V83.0718Z" fill="black"/>
  <path d="M496.347 80.3096C496.688 80.3486 497.01 80.4879 497.272 80.7098C497.533 80.9317 497.723 81.2262 497.818 81.5561C497.912 81.8859 497.906 82.2364 497.801 82.5631C497.696 82.8897 497.497 83.1779 497.228 83.3912C496.959 83.6045 496.633 83.7332 496.291 83.7612C495.949 83.7892 495.607 83.7151 495.307 83.5483C495.007 83.3815 494.764 83.1296 494.607 82.8243C494.45 82.519 494.388 82.1741 494.427 81.8333C494.48 81.3768 494.712 80.9598 495.072 80.6741C495.432 80.3884 495.891 80.2573 496.347 80.3096V80.3096Z" fill="black"/>
  <path opacity="0.8" d="M496.347 80.3096C496.688 80.3486 497.01 80.4879 497.272 80.7098C497.533 80.9317 497.723 81.2262 497.818 81.5561C497.912 81.8859 497.906 82.2364 497.801 82.5631C497.696 82.8897 497.497 83.1779 497.228 83.3912C496.959 83.6045 496.633 83.7332 496.291 83.7612C495.949 83.7892 495.607 83.7151 495.307 83.5483C495.007 83.3815 494.764 83.1296 494.607 82.8243C494.45 82.519 494.388 82.1741 494.427 81.8333C494.48 81.3768 494.712 80.9598 495.072 80.6741C495.432 80.3884 495.891 80.2573 496.347 80.3096V80.3096Z" fill="black"/>
  <path d="M550.594 101.642C550.594 101.985 550.492 102.32 550.302 102.605C550.111 102.89 549.84 103.113 549.523 103.244C549.207 103.375 548.858 103.409 548.521 103.343C548.185 103.276 547.876 103.11 547.633 102.868C547.391 102.625 547.226 102.316 547.159 101.98C547.092 101.643 547.126 101.295 547.257 100.978C547.389 100.661 547.611 100.39 547.896 100.2C548.181 100.009 548.517 99.9072 548.86 99.9072C549.32 99.9072 549.761 100.09 550.086 100.415C550.411 100.74 550.594 101.182 550.594 101.642V101.642Z" fill="black"/>
  <path opacity="0.8" d="M550.594 101.642C550.594 101.985 550.492 102.32 550.302 102.605C550.111 102.89 549.84 103.113 549.523 103.244C549.207 103.375 548.858 103.409 548.521 103.343C548.185 103.276 547.876 103.11 547.633 102.868C547.391 102.625 547.226 102.316 547.159 101.98C547.092 101.643 547.126 101.295 547.257 100.978C547.389 100.661 547.611 100.39 547.896 100.2C548.181 100.009 548.517 99.9072 548.86 99.9072C549.32 99.9072 549.761 100.09 550.086 100.415C550.411 100.74 550.594 101.182 550.594 101.642V101.642Z" fill="black"/>
  <path d="M671.055 177.592C671.055 177.778 670.999 177.96 670.896 178.115C670.792 178.27 670.645 178.39 670.473 178.462C670.301 178.533 670.112 178.552 669.929 178.515C669.747 178.479 669.579 178.389 669.447 178.258C669.316 178.126 669.226 177.958 669.19 177.776C669.153 177.593 669.172 177.404 669.243 177.232C669.315 177.06 669.435 176.913 669.59 176.809C669.745 176.706 669.927 176.65 670.113 176.65C670.363 176.65 670.602 176.75 670.779 176.926C670.955 177.103 671.055 177.342 671.055 177.592V177.592Z" fill="black"/>
  <path opacity="0.8" d="M671.055 177.592C671.055 177.778 670.999 177.96 670.896 178.115C670.792 178.27 670.645 178.39 670.473 178.462C670.301 178.533 670.112 178.552 669.929 178.515C669.747 178.479 669.579 178.389 669.447 178.258C669.316 178.126 669.226 177.958 669.19 177.776C669.153 177.593 669.172 177.404 669.243 177.232C669.315 177.06 669.435 176.913 669.59 176.809C669.745 176.706 669.927 176.65 670.113 176.65C670.363 176.65 670.602 176.75 670.779 176.926C670.955 177.103 671.055 177.342 671.055 177.592V177.592Z" fill="black"/>
  <path d="M322.941 146.684C322.76 146.637 322.569 146.645 322.393 146.707C322.216 146.77 322.063 146.883 321.951 147.033C321.839 147.183 321.775 147.363 321.766 147.55C321.757 147.737 321.804 147.922 321.9 148.082C321.997 148.242 322.139 148.37 322.309 148.449C322.479 148.528 322.668 148.554 322.853 148.525C323.037 148.496 323.209 148.413 323.346 148.285C323.484 148.158 323.58 147.993 323.623 147.811C323.652 147.692 323.658 147.569 323.64 147.448C323.622 147.327 323.58 147.21 323.516 147.106C323.453 147.001 323.369 146.91 323.271 146.837C323.172 146.765 323.06 146.713 322.941 146.684Z" fill="black"/>
  <path opacity="0.8" d="M322.941 146.684C322.76 146.637 322.569 146.645 322.393 146.707C322.216 146.77 322.063 146.883 321.951 147.033C321.839 147.183 321.775 147.363 321.766 147.55C321.757 147.737 321.804 147.922 321.9 148.082C321.997 148.242 322.139 148.37 322.309 148.449C322.479 148.528 322.668 148.554 322.853 148.525C323.037 148.496 323.209 148.413 323.346 148.285C323.484 148.158 323.58 147.993 323.623 147.811C323.652 147.692 323.658 147.569 323.64 147.448C323.622 147.327 323.58 147.21 323.516 147.106C323.453 147.001 323.369 146.91 323.271 146.837C323.172 146.765 323.06 146.713 322.941 146.684Z" fill="black"/>
  <path d="M320.241 177.245C320.086 177.551 320.026 177.897 320.068 178.237C320.11 178.578 320.252 178.898 320.475 179.158C320.699 179.418 320.995 179.605 321.326 179.697C321.656 179.789 322.007 179.78 322.333 179.673C322.658 179.565 322.945 179.364 323.156 179.093C323.367 178.823 323.494 178.496 323.519 178.154C323.544 177.812 323.468 177.47 323.299 177.172C323.13 176.873 322.876 176.631 322.57 176.477C322.159 176.27 321.683 176.235 321.246 176.379C320.809 176.523 320.448 176.834 320.241 177.245Z" fill="black"/>
  <path opacity="0.8" d="M320.241 177.245C320.086 177.551 320.026 177.897 320.068 178.237C320.11 178.578 320.252 178.898 320.475 179.158C320.699 179.418 320.995 179.605 321.326 179.697C321.656 179.789 322.007 179.78 322.333 179.673C322.658 179.565 322.945 179.364 323.156 179.093C323.367 178.823 323.494 178.496 323.519 178.154C323.544 177.812 323.468 177.47 323.299 177.172C323.13 176.873 322.876 176.631 322.57 176.477C322.159 176.27 321.683 176.235 321.246 176.379C320.809 176.523 320.448 176.834 320.241 177.245Z" fill="black"/>
  <path d="M516.924 147.402C516.769 147.709 516.709 148.054 516.751 148.394C516.793 148.735 516.935 149.055 517.159 149.315C517.382 149.575 517.678 149.763 518.009 149.854C518.34 149.946 518.69 149.938 519.016 149.83C519.341 149.723 519.628 149.521 519.839 149.251C520.05 148.98 520.177 148.653 520.202 148.311C520.227 147.969 520.151 147.627 519.982 147.329C519.813 147.03 519.559 146.789 519.253 146.634C518.842 146.427 518.366 146.392 517.929 146.536C517.493 146.68 517.131 146.992 516.924 147.402Z" fill="black"/>
  <path opacity="0.8" d="M516.924 147.402C516.769 147.709 516.709 148.054 516.751 148.394C516.793 148.735 516.935 149.055 517.159 149.315C517.382 149.575 517.678 149.763 518.009 149.854C518.34 149.946 518.69 149.938 519.016 149.83C519.341 149.723 519.628 149.521 519.839 149.251C520.05 148.98 520.177 148.653 520.202 148.311C520.227 147.969 520.151 147.627 519.982 147.329C519.813 147.03 519.559 146.789 519.253 146.634C518.842 146.427 518.366 146.392 517.929 146.536C517.493 146.68 517.131 146.992 516.924 147.402Z" fill="black"/>
  <path d="M434.234 183.612C434.416 183.566 434.607 183.574 434.783 183.636C434.959 183.698 435.113 183.812 435.225 183.962C435.337 184.112 435.401 184.292 435.41 184.479C435.419 184.666 435.372 184.851 435.275 185.011C435.179 185.171 435.036 185.299 434.867 185.378C434.697 185.457 434.508 185.483 434.323 185.454C434.138 185.425 433.966 185.341 433.829 185.214C433.692 185.087 433.596 184.922 433.553 184.74C433.497 184.5 433.536 184.248 433.664 184.037C433.791 183.826 433.996 183.674 434.234 183.612Z" fill="black"/>
  <path opacity="0.8" d="M434.234 183.612C434.416 183.566 434.607 183.574 434.783 183.636C434.959 183.698 435.113 183.812 435.225 183.962C435.337 184.112 435.401 184.292 435.41 184.479C435.419 184.666 435.372 184.851 435.275 185.011C435.179 185.171 435.036 185.299 434.867 185.378C434.697 185.457 434.508 185.483 434.323 185.454C434.138 185.425 433.966 185.341 433.829 185.214C433.692 185.087 433.596 184.922 433.553 184.74C433.497 184.5 433.536 184.248 433.664 184.037C433.791 183.826 433.996 183.674 434.234 183.612Z" fill="black"/>
  <path d="M233.178 235.32C233.147 235.549 233.069 235.77 232.95 235.969C232.832 236.168 232.674 236.341 232.486 236.478C232.299 236.614 232.086 236.712 231.86 236.764C231.634 236.816 231.4 236.822 231.172 236.781C230.832 236.731 230.515 236.581 230.261 236.351C230.007 236.121 229.827 235.82 229.743 235.488C229.66 235.155 229.677 234.805 229.792 234.482C229.908 234.159 230.117 233.878 230.392 233.673C230.667 233.469 230.997 233.351 231.34 233.334C231.683 233.317 232.022 233.402 232.317 233.578C232.611 233.754 232.846 234.014 232.993 234.324C233.14 234.634 233.191 234.98 233.141 235.32H233.178Z" fill="black"/>
  <path opacity="0.8" d="M233.178 235.32C233.147 235.549 233.069 235.77 232.95 235.969C232.832 236.168 232.674 236.341 232.486 236.478C232.299 236.614 232.086 236.712 231.86 236.764C231.634 236.816 231.4 236.822 231.172 236.781C230.832 236.731 230.515 236.581 230.261 236.351C230.007 236.121 229.827 235.82 229.743 235.488C229.66 235.155 229.677 234.805 229.792 234.482C229.908 234.159 230.117 233.878 230.392 233.673C230.667 233.469 230.997 233.351 231.34 233.334C231.683 233.317 232.022 233.402 232.317 233.578C232.611 233.754 232.846 234.014 232.993 234.324C233.14 234.634 233.191 234.98 233.141 235.32H233.178Z" fill="black"/>
  <path d="M390.79 126.764C389.81 126.764 388.852 126.474 388.037 125.929C387.222 125.385 386.587 124.611 386.212 123.705C385.837 122.8 385.739 121.804 385.93 120.842C386.121 119.881 386.593 118.998 387.286 118.305C387.979 117.612 388.862 117.14 389.823 116.949C390.784 116.758 391.781 116.856 392.686 117.231C393.591 117.606 394.365 118.241 394.91 119.056C395.454 119.871 395.745 120.829 395.745 121.809C395.745 123.123 395.223 124.384 394.294 125.313C393.364 126.242 392.104 126.764 390.79 126.764ZM390.79 117.411C389.924 117.411 389.078 117.668 388.359 118.149C387.64 118.63 387.079 119.314 386.749 120.114C386.418 120.914 386.332 121.793 386.502 122.642C386.672 123.491 387.089 124.27 387.702 124.881C388.315 125.492 389.095 125.907 389.944 126.075C390.793 126.242 391.673 126.154 392.472 125.821C393.271 125.488 393.953 124.926 394.432 124.205C394.911 123.484 395.165 122.637 395.163 121.772C395.159 120.614 394.697 119.505 393.878 118.688C393.058 117.87 391.947 117.411 390.79 117.411V117.411Z" fill="black"/>
  <path d="M390.79 120.397C391.062 120.397 391.328 120.478 391.554 120.629C391.78 120.78 391.956 120.995 392.06 121.246C392.164 121.497 392.192 121.774 392.139 122.04C392.086 122.307 391.955 122.552 391.762 122.744C391.57 122.937 391.325 123.068 391.058 123.121C390.791 123.174 390.515 123.146 390.264 123.042C390.012 122.938 389.798 122.762 389.647 122.536C389.496 122.31 389.415 122.044 389.415 121.772C389.415 121.407 389.56 121.058 389.818 120.8C390.076 120.542 390.425 120.397 390.79 120.397V120.397Z" fill="black"/>
  <path opacity="0.8" d="M390.79 120.397C391.062 120.397 391.328 120.478 391.554 120.629C391.78 120.78 391.956 120.995 392.06 121.246C392.164 121.497 392.192 121.774 392.139 122.04C392.086 122.307 391.955 122.552 391.762 122.744C391.57 122.937 391.325 123.068 391.058 123.121C390.791 123.174 390.515 123.146 390.264 123.042C390.012 122.938 389.798 122.762 389.647 122.536C389.496 122.31 389.415 122.044 389.415 121.772C389.415 121.407 389.56 121.058 389.818 120.8C390.076 120.542 390.425 120.397 390.79 120.397V120.397Z" fill="black"/>
  <path d="M261.163 198.998C259.845 198.998 258.556 198.607 257.46 197.875C256.364 197.143 255.51 196.102 255.005 194.884C254.501 193.666 254.369 192.326 254.626 191.033C254.883 189.741 255.518 188.553 256.45 187.621C257.382 186.689 258.57 186.054 259.863 185.797C261.155 185.54 262.496 185.672 263.713 186.176C264.931 186.681 265.972 187.535 266.704 188.631C267.437 189.727 267.828 191.016 267.828 192.334C267.828 194.101 267.125 195.796 265.876 197.046C264.626 198.296 262.93 198.998 261.163 198.998V198.998ZM261.163 186.288C259.967 186.288 258.798 186.643 257.804 187.307C256.81 187.971 256.035 188.916 255.578 190.02C255.12 191.125 255 192.34 255.234 193.513C255.467 194.686 256.043 195.763 256.888 196.608C257.734 197.454 258.811 198.03 259.983 198.263C261.156 198.496 262.372 198.376 263.476 197.919C264.581 197.461 265.525 196.686 266.189 195.692C266.854 194.698 267.208 193.529 267.208 192.334C267.205 190.731 266.567 189.196 265.434 188.063C264.301 186.93 262.765 186.292 261.163 186.288V186.288Z" fill="black"/>
  <path d="M261.163 190.475C261.619 190.528 262.039 190.746 262.344 191.089C262.65 191.432 262.818 191.875 262.818 192.333C262.818 192.792 262.65 193.235 262.344 193.578C262.039 193.92 261.619 194.139 261.163 194.192C260.901 194.222 260.635 194.197 260.384 194.117C260.132 194.037 259.9 193.906 259.703 193.73C259.506 193.555 259.349 193.339 259.241 193.099C259.133 192.858 259.077 192.597 259.077 192.333C259.077 192.07 259.133 191.809 259.241 191.568C259.349 191.327 259.506 191.112 259.703 190.937C259.9 190.761 260.132 190.63 260.384 190.55C260.635 190.47 260.901 190.445 261.163 190.475V190.475Z" fill="black"/>
  <path opacity="0.8" d="M261.163 190.475C261.619 190.528 262.039 190.746 262.344 191.089C262.65 191.432 262.818 191.875 262.818 192.333C262.818 192.792 262.65 193.235 262.344 193.578C262.039 193.92 261.619 194.139 261.163 194.192C260.901 194.222 260.635 194.197 260.384 194.117C260.132 194.037 259.9 193.906 259.703 193.73C259.506 193.555 259.349 193.339 259.241 193.099C259.133 192.858 259.077 192.597 259.077 192.333C259.077 192.07 259.133 191.809 259.241 191.568C259.349 191.327 259.506 191.112 259.703 190.937C259.9 190.761 260.132 190.63 260.384 190.55C260.635 190.47 260.901 190.445 261.163 190.475V190.475Z" fill="black"/>
  <path d="M446.07 189.496C445.974 189.571 445.864 189.626 445.747 189.658C443.933 190.108 442.045 190.182 440.202 189.873C438.39 189.913 436.652 190.601 435.302 191.811C434.522 192.538 433.876 193.426 433.095 194.18C432.104 195.133 430.914 195.855 429.611 196.293C428.307 196.73 426.923 196.873 425.558 196.71C424.668 196.54 423.769 196.423 422.866 196.36C420.711 196.772 418.627 197.488 416.674 198.487C412.071 199.968 407.01 197.464 402.272 198.487C399.58 198.999 397.238 200.56 394.573 200.937C392.906 200.963 391.243 201.098 389.593 201.341C389.593 202.31 393.12 202.498 393.9 202.525C395.731 202.625 397.563 202.351 399.284 201.717C400.327 201.251 401.397 200.846 402.488 200.506C405.195 200.069 407.969 200.603 410.321 202.014C411.332 202.395 412.378 202.675 413.444 202.848C414.844 203.225 416.136 203.898 417.589 204.302C420.214 205.151 423.04 205.151 425.665 204.302C427.254 203.709 428.653 202.713 430.268 202.283C433.061 201.776 435.942 202.333 438.344 203.844C439.79 204.826 441.496 205.351 443.244 205.352C445.666 205.002 447.147 202.66 449.354 201.475C450.883 201.001 452.49 200.833 454.084 200.981C455.677 201.128 457.226 201.589 458.641 202.337C460.232 203.004 461.869 203.553 463.541 203.979C465.211 204.396 466.958 204.396 468.629 203.979C469.849 203.489 471.099 203.076 472.37 202.74C473.878 202.498 475.466 202.983 476.974 202.74C477.513 202.647 478.044 202.512 478.562 202.337C479.831 201.883 481.172 201.664 482.519 201.69C482.632 201.734 482.756 201.734 482.869 201.69C482.895 201.641 482.908 201.585 482.908 201.529C482.908 201.473 482.895 201.417 482.869 201.367C482.836 201.209 482.757 201.063 482.642 200.948C482.527 200.833 482.382 200.755 482.223 200.721C481.902 200.667 481.574 200.667 481.254 200.721C479.262 200.721 477.243 200.91 475.251 201.098C473.43 201.207 471.605 200.979 469.867 200.425C468.639 200.001 467.39 199.641 466.125 199.349C465.008 198.96 464.058 198.2 463.433 197.195C462.383 195.849 461.253 194.126 459.368 194.045C459.002 194.065 458.636 194.011 458.292 193.884C457.807 193.642 457.645 193.022 457.511 192.511C456.679 190.201 455.02 188.283 452.854 187.127C452.142 186.705 451.31 186.528 450.488 186.626C449.666 186.723 448.898 187.088 448.304 187.666C447.622 188.348 446.873 188.961 446.07 189.496V189.496Z" fill="black"/>
  <path d="M377.608 137.099C375.005 137.453 372.543 138.494 370.475 140.114C367.783 142.268 365.091 145.498 361.214 145.794C359.834 145.693 358.452 145.955 357.205 146.555C355.958 147.155 354.89 148.071 354.108 149.213C353.838 149.778 353.838 151.582 353.139 151.905C352.439 152.228 350.931 150.936 350.177 150.801C347.739 150.572 345.28 150.708 342.882 151.205C341.772 151.382 340.709 151.78 339.756 152.377C338.804 152.974 337.981 153.756 337.337 154.678C336.691 155.62 336.125 156.804 335.049 157.073C334.41 157.156 333.761 157.073 333.164 156.831C331.086 155.988 328.887 155.479 326.65 155.324C325.534 155.259 324.422 155.513 323.445 156.057C322.468 156.6 321.666 157.41 321.131 158.392C321.131 158.688 320.862 159.038 320.566 159.092C320.27 159.146 319.974 158.931 319.732 158.715C318.927 158.008 317.963 157.506 316.923 157.253C315.882 157 314.795 157.003 313.756 157.262C313.072 157.393 312.455 157.754 312.006 158.285C311.387 159.092 311.387 160.223 310.767 160.977C309.718 162.35 307.591 161.973 305.895 161.515C304.825 161.082 303.67 160.899 302.518 160.978C301.366 161.057 300.247 161.397 299.246 161.973C298.761 162.35 298.358 162.861 297.819 163.211C296.286 163.943 294.552 164.142 292.893 163.776C291.789 163.776 278.787 164.342 279.003 165.472C279.218 166.603 282.475 166.307 283.202 166.36C283.929 166.414 285.329 166.657 286.432 166.684C287.538 166.543 288.661 166.607 289.743 166.872C290.416 167.168 290.847 167.76 291.601 168.003C293.34 168.397 295.16 168.227 296.796 167.518C298.695 166.541 300.757 165.921 302.88 165.688C303.881 165.87 304.845 166.216 305.734 166.71C307.634 167.317 309.675 167.317 311.575 166.71C312.84 166.129 314.221 165.843 315.613 165.876C316.286 166.037 317.04 166.737 317.74 166.98C318.665 167.307 319.621 167.542 320.593 167.68C324.066 168.11 327.431 166.091 330.688 165.203C332.173 164.663 333.768 164.498 335.332 164.723C336.896 164.949 338.38 165.557 339.652 166.495C340.486 167.249 341.079 168.218 341.859 169.026C344.551 171.933 349.074 172.067 353.004 172.848C356.288 173.494 359.222 175.54 362.372 176.24C364.864 176.432 367.343 175.736 369.371 174.275C371.228 173.306 373.14 173.144 374.943 172.283C375.762 171.733 376.466 171.029 377.016 170.21C378.02 169.124 379.34 168.381 380.789 168.087C382.238 167.792 383.744 167.96 385.092 168.568C386.562 169.484 387.973 170.491 389.318 171.583C390.893 172.676 392.757 173.277 394.673 173.31C396.59 173.344 398.474 172.808 400.086 171.771C401.732 170.947 403.508 170.409 405.335 170.183C409.023 169.537 412.953 170.183 416.291 168.972C421.675 166.872 425.067 168.649 430.612 168.972C433.706 168.882 436.755 168.215 439.603 167.007C441.353 166.36 448.325 165.122 449.133 163.561C449.268 163.271 449.294 162.942 449.204 162.635C449.115 162.328 448.918 162.064 448.648 161.892C448.352 161.725 448.019 161.633 447.679 161.623C443.695 161.219 439.9 163.023 435.942 162.888C433.251 162.888 430.989 160.923 428.27 161.542C426.601 161.946 425.121 162.888 423.452 163.319C421.961 163.615 420.423 163.573 418.951 163.196C417.478 162.819 416.109 162.115 414.945 161.138C412.685 159.129 410.854 156.685 409.561 153.951C408.35 151.609 406.466 148.782 403.935 149.374C402.455 149.697 401.432 151.151 400.005 151.609C397.313 152.497 394.837 149.428 393.652 146.736C392.412 143.588 390.167 140.937 387.266 139.194C384.365 137.452 380.97 136.715 377.608 137.099Z" fill="black"/>
  <path d="M206.4 622.304C221.376 604.448 230.304 581.12 230.304 555.488C230.304 496.16 183.36 450.656 125.472 450.656C67.584 450.656 20.64 496.16 20.64 555.488C20.64 614.816 67.584 660.32 125.472 660.32C141.888 660.32 157.728 656.288 171.84 649.664L188.256 668.672C191.136 672.128 194.592 672.704 198.336 669.536L221.088 650.528C224.832 647.36 225.12 644.192 221.952 640.448L206.4 622.304ZM125.184 615.392C92.352 615.392 66.432 591.488 66.432 555.488C66.432 519.488 92.352 495.584 125.184 495.584C158.016 495.584 183.936 519.488 183.936 555.488C183.936 567.584 181.056 578.528 175.584 587.744L158.016 567.872C155.136 564.416 151.68 563.84 147.936 567.008L125.184 586.016C121.44 589.184 121.152 592.352 124.32 596.096L139.872 613.664C135.264 614.816 130.368 615.392 125.184 615.392ZM371.991 512H343.191C338.583 512 335.991 514.592 335.991 519.2V596.096C335.991 613.088 327.927 620.288 314.967 620.288C304.023 620.288 295.671 613.952 295.671 599.552V519.2C295.671 514.592 293.079 512 288.471 512H259.671C255.063 512 252.471 514.592 252.471 519.2V603.296C252.471 639.296 271.767 660.032 298.551 660.032C316.695 660.032 329.079 653.12 335.991 643.04V648.8C335.991 653.408 338.583 656 343.191 656H371.991C376.599 656 379.191 653.408 379.191 648.8V519.2C379.191 514.592 376.599 512 371.991 512ZM470.519 507.968C441.143 507.968 414.647 523.808 410.903 554.912C410.615 559.808 413.495 562.4 418.103 562.4H446.327C450.647 562.4 452.087 560.096 453.815 556.064C456.119 551.168 461.591 547.712 470.519 547.712C482.615 547.712 488.375 554.048 488.375 568.16V581.408C480.599 575.36 469.078 570.176 451.223 570.176C425.879 570.176 403.703 585.152 403.703 615.104C403.703 645.056 425.879 660.032 451.223 660.032C469.078 660.032 480.599 653.984 488.375 644.768V648.8C488.375 653.408 490.967 656 495.575 656H523.223C527.831 656 530.423 653.408 530.423 648.8V565.28C530.423 526.4 502.199 507.968 470.519 507.968ZM466.487 629.504C453.239 629.504 446.903 623.456 446.903 615.104C446.903 606.752 453.239 600.704 466.487 600.704C480.599 600.704 488.375 606.176 488.375 615.104C488.375 623.456 480.599 629.504 466.487 629.504ZM631.43 509.696C617.03 512 605.51 520.352 601.478 535.04V519.2C601.478 514.592 598.886 512 594.278 512H565.478C560.87 512 558.278 514.592 558.278 519.2V648.8C558.278 653.408 560.87 656 565.478 656H594.278C598.886 656 601.478 653.408 601.478 648.8V588.032C601.478 564.992 617.03 556.928 633.158 557.504C636.902 557.504 638.918 555.2 638.918 550.592V516.608C638.918 512 636.326 508.832 631.43 509.696ZM658.999 461.6V648.8C658.999 653.408 661.591 656 666.199 656H697.879C702.487 656 705.079 653.408 705.079 648.8V461.6C705.079 456.992 702.487 454.4 697.879 454.4H666.199C661.591 454.4 658.999 456.992 658.999 461.6ZM807.398 660.032C849.734 660.032 883.718 626.912 883.718 584C883.718 541.088 849.734 507.968 807.398 507.968C765.062 507.968 731.078 541.088 731.078 584C731.078 626.912 765.062 660.032 807.398 660.032ZM807.398 617.984C788.678 617.984 774.278 604.448 774.278 584C774.278 563.552 788.678 550.016 807.398 550.016C826.118 550.016 840.518 563.552 840.518 584C840.518 604.448 826.118 617.984 807.398 617.984Z" fill="white"/>
  <path d="M528.5 678H495.5H488C486.05 678 485 679.05 485 681V780C485 781.95 486.05 783 488 783H489.5H528.5C557.45 783 578 759.45 578 730.5C578 701.55 557.45 678 528.5 678ZM528.5 773.1H495.5V687.9H528.5C551.9 687.9 567.8 706.95 567.8 730.5C567.8 754.05 551.9 773.1 528.5 773.1ZM597.535 693H601.435C603.385 693 604.435 691.95 604.435 690V681C604.435 679.05 603.385 678 601.435 678H597.535C595.585 678 594.535 679.05 594.535 681V690C594.535 691.95 595.585 693 597.535 693ZM597.535 783H601.435C603.385 783 604.435 781.95 604.435 780V711C604.435 709.05 603.385 708 601.435 708H597.535C595.585 708 594.535 709.05 594.535 711V780C594.535 781.95 595.585 783 597.535 783ZM696.843 708H692.943C690.993 708 689.943 709.05 689.943 711V722.7C683.643 712.65 672.993 706.2 659.643 706.2C638.493 706.2 620.943 723.3 620.943 745.5C620.943 767.7 638.493 784.8 659.643 784.8C672.993 784.8 683.643 778.5 689.943 768.45V780C689.943 795.3 680.343 805.2 662.193 805.2C647.643 805.2 638.493 796.8 636.543 789.45C636.093 787.65 635.193 786.75 633.393 786.75H629.493C627.543 786.75 626.343 787.8 626.493 789.9C628.593 804.15 645.093 814.8 662.193 814.8C682.293 814.8 699.843 802.8 699.843 780V711C699.843 709.05 698.793 708 696.843 708ZM660.393 775.2C643.743 775.2 630.843 762.15 630.843 745.5C630.843 728.85 643.743 715.8 660.393 715.8C677.043 715.8 689.943 728.85 689.943 745.5C689.943 762.15 677.043 775.2 660.393 775.2ZM723.805 693H727.705C729.655 693 730.705 691.95 730.705 690V681C730.705 679.05 729.655 678 727.705 678H723.805C721.855 678 720.805 679.05 720.805 681V690C720.805 691.95 721.855 693 723.805 693ZM723.805 783H727.705C729.655 783 730.705 781.95 730.705 780V711C730.705 709.05 729.655 708 727.705 708H723.805C721.855 708 720.805 709.05 720.805 711V780C720.805 781.95 721.855 783 723.805 783ZM782.463 708H769.863V687C769.863 685.05 768.813 684 766.863 684H762.963C761.013 684 759.963 685.05 759.963 687V708H747.213C745.263 708 744.213 709.05 744.213 711V714.6C744.213 716.55 745.263 717.6 747.213 717.6H759.963V780C759.963 781.95 761.013 783 762.963 783H766.863C768.813 783 769.863 781.95 769.863 780V717.6H782.463C784.413 717.6 785.463 716.55 785.463 714.6V711C785.463 709.05 784.413 708 782.463 708ZM824.562 706.2C808.963 706.2 797.863 715.35 796.213 728.1C796.063 730.2 797.263 731.25 799.213 731.25H803.113C804.913 731.25 805.812 730.2 806.263 728.4C807.763 719.85 815.863 715.8 824.562 715.8C834.163 715.8 843.163 720.75 843.163 734.25V746.4C838.063 739.95 829.363 736.5 819.913 736.5C806.113 736.5 793.063 744.45 793.063 760.65C793.063 776.85 806.113 784.8 819.913 784.8C829.363 784.8 838.063 781.95 843.163 774.6V780C843.163 781.95 844.213 783 846.163 783H850.063C852.013 783 853.063 781.95 853.063 780V734.25C853.063 716.85 841.363 706.2 824.562 706.2ZM822.313 775.5C808.963 775.5 802.963 769.2 802.963 760.65C802.963 752.1 808.963 745.8 822.313 745.8C834.313 745.8 843.163 751.5 843.163 760.65C843.163 769.2 834.313 775.5 822.313 775.5ZM875.27 783H879.17C881.12 783 882.17 781.95 882.17 780V678C882.17 676.05 881.12 675 879.17 675H875.27C873.32 675 872.27 676.05 872.27 678V780C872.27 781.95 873.32 783 875.27 783Z" fill="white"/>
  <path d="M563.463 53C569.975 59.9033 574.038 68.7482 575.029 78.1783C576.021 87.6083 573.886 97.1026 568.952 105.205C564.018 113.307 556.558 119.57 547.715 123.033C538.873 126.496 529.137 126.967 520 124.375C524.582 129.233 530.227 132.969 536.494 135.292C542.761 137.614 549.48 138.46 556.129 137.763C562.777 137.067 569.174 134.847 574.821 131.276C580.468 127.706 585.213 122.881 588.686 117.179C592.158 111.477 594.264 105.052 594.839 98.4034C595.414 91.7552 594.443 85.0642 592.002 78.8522C589.561 72.6402 585.715 67.075 580.765 62.5908C575.815 58.1065 569.894 54.8242 563.463 53V53Z" fill="black"/>
</svg>
  