<svg width="356" height="327" viewBox="0 0 356 327" fill="none" xmlns="http://www.w3.org/2000/svg">
<path d="M37.1146 273.335C-15.5329 231.711 -6.51216 156.515 37.6018 97.6711C105.246 7.43344 212.132 -26.4875 292.344 29.715C362.378 78.8075 363.551 210.289 345.235 250.361C327.727 288.591 283.574 323.174 192.408 326.036C111.899 328.556 65.4252 295.716 37.1146 273.335Z" fill="#22252C"/>
<path d="M249.387 30.2631C249.387 30.498 249.317 30.7276 249.187 30.9229C249.056 31.1182 248.871 31.2704 248.654 31.3602C248.437 31.4501 248.198 31.4736 247.968 31.4278C247.738 31.382 247.526 31.2689 247.36 31.1028C247.194 30.9367 247.081 30.7251 247.035 30.4948C246.989 30.2644 247.013 30.0256 247.102 29.8087C247.192 29.5917 247.345 29.4062 247.54 29.2757C247.735 29.1452 247.965 29.0756 248.2 29.0756C248.515 29.0756 248.817 29.2007 249.039 29.4234C249.262 29.6461 249.387 29.9481 249.387 30.2631V30.2631Z" fill="white"/>
<path opacity="0.3" d="M92.1525 72.7176C92.8084 72.7176 93.34 72.1859 93.34 71.5301C93.34 70.8742 92.8084 70.3425 92.1525 70.3425C91.4966 70.3425 90.965 70.8742 90.965 71.5301C90.965 72.1859 91.4966 72.7176 92.1525 72.7176Z" fill="white"/>
<path d="M148.119 34.0313C148.119 34.2662 148.049 34.4958 147.919 34.691C147.788 34.8863 147.603 35.0385 147.386 35.1284C147.169 35.2183 146.93 35.2418 146.7 35.196C146.469 35.1502 146.258 35.0371 146.092 34.871C145.926 34.7049 145.813 34.4933 145.767 34.263C145.721 34.0326 145.744 33.7938 145.834 33.5768C145.924 33.3598 146.076 33.1744 146.272 33.0439C146.467 32.9134 146.697 32.8438 146.931 32.8438C147.246 32.8438 147.548 32.9689 147.771 33.1916C147.994 33.4143 148.119 33.7163 148.119 34.0313Z" fill="white"/>
<g opacity="0.3">
<path opacity="0.3" d="M281.656 49.9412C281.774 49.9873 281.875 50.0672 281.947 50.1708C282.02 50.2744 282.06 50.397 282.062 50.5234C282.065 50.6497 282.03 50.7739 281.962 50.8804C281.894 50.9869 281.796 51.071 281.681 51.1219C281.565 51.1728 281.437 51.1883 281.313 51.1665C281.188 51.1447 281.073 51.0865 280.982 50.9993C280.89 50.9121 280.827 50.7997 280.799 50.6765C280.771 50.5532 280.781 50.4245 280.826 50.3066C280.857 50.228 280.902 50.1562 280.96 50.0952C281.019 50.0343 281.088 49.9854 281.165 49.9514C281.242 49.9175 281.326 49.8991 281.41 49.8974C281.494 49.8956 281.578 49.9105 281.656 49.9412V49.9412Z" fill="white"/>
<path opacity="0.3" d="M285.744 53.8159C285.98 53.9046 286.185 54.0612 286.332 54.266C286.48 54.4708 286.563 54.7146 286.572 54.9667C286.582 55.2189 286.516 55.4681 286.384 55.6831C286.252 55.898 286.059 56.069 285.83 56.1746C285.601 56.2802 285.345 56.3157 285.096 56.2765C284.847 56.2374 284.615 56.1254 284.429 55.9546C284.243 55.7838 284.112 55.5619 284.052 55.3168C283.992 55.0717 284.006 54.8143 284.092 54.5771C284.15 54.4181 284.238 54.2721 284.353 54.1476C284.467 54.023 284.606 53.9224 284.759 53.8516C284.913 53.7808 285.079 53.7412 285.248 53.7351C285.417 53.729 285.586 53.7564 285.744 53.8159V53.8159Z" fill="white"/>
<g opacity="0.5">
<path opacity="0.5" d="M305.765 87.8207C305.73 88.0533 305.628 88.2704 305.47 88.4446C305.312 88.6189 305.106 88.7424 304.878 88.7995C304.65 88.8566 304.41 88.8447 304.189 88.7654C303.968 88.6861 303.775 88.5429 303.635 88.354C303.495 88.165 303.415 87.9388 303.404 87.704C303.392 87.4692 303.451 87.2364 303.572 87.035C303.694 86.8336 303.872 86.6728 304.085 86.5728C304.297 86.4728 304.535 86.4382 304.767 86.4733C305.077 86.5222 305.355 86.6908 305.542 86.9429C305.728 87.1949 305.808 87.5102 305.765 87.8207V87.8207Z" fill="white"/>
</g>
</g>
<g opacity="0.5">
<path opacity="0.5" d="M138.611 65.2347C138.613 65.5015 138.535 65.7627 138.388 65.9853C138.241 66.2079 138.031 66.3818 137.785 66.4849C137.539 66.5881 137.267 66.6159 137.006 66.5647C136.744 66.5136 136.503 66.3859 136.314 66.1977C136.125 66.0096 135.995 65.7695 135.943 65.508C135.89 65.2464 135.916 64.9751 136.018 64.7284C136.12 64.4818 136.293 64.2709 136.514 64.1225C136.736 63.9741 136.997 63.8949 137.264 63.8949C137.62 63.8949 137.961 64.0358 138.214 64.2868C138.466 64.5379 138.609 64.8786 138.611 65.2347V65.2347Z" fill="white"/>
<path opacity="0.5" d="M134.599 68.9038C134.609 69.0653 134.569 69.2259 134.486 69.3647C134.402 69.5034 134.279 69.6139 134.133 69.6818C133.986 69.7497 133.822 69.772 133.662 69.7455C133.502 69.7191 133.354 69.6454 133.237 69.5338C133.12 69.4222 133.039 69.2779 133.005 69.1198C132.971 68.9616 132.985 68.7968 133.046 68.6468C133.106 68.4968 133.211 68.3685 133.345 68.2786C133.48 68.1887 133.638 68.1413 133.8 68.1426C133.903 68.1374 134.006 68.1533 134.103 68.1892C134.2 68.2251 134.288 68.2804 134.363 68.3516C134.438 68.4228 134.497 68.5085 134.538 68.6034C134.579 68.6983 134.6 68.8005 134.599 68.9038V68.9038Z" fill="white"/>
<path opacity="0.5" d="M132.323 63.8949C132.323 64.0228 132.285 64.1479 132.214 64.2543C132.143 64.3607 132.042 64.4437 131.924 64.4927C131.806 64.5416 131.676 64.5544 131.55 64.5295C131.424 64.5045 131.309 64.4429 131.219 64.3524C131.128 64.2619 131.067 64.1466 131.042 64.0211C131.017 63.8956 131.029 63.7655 131.078 63.6472C131.127 63.529 131.21 63.4279 131.317 63.3569C131.423 63.2858 131.548 63.2478 131.676 63.2478C131.848 63.2478 132.012 63.316 132.134 63.4373C132.255 63.5587 132.323 63.7232 132.323 63.8949Z" fill="white"/>
</g>
<g opacity="0.5">
<path opacity="0.5" d="M261.864 73.5397C261.831 73.7728 261.73 73.9909 261.573 74.1663C261.415 74.3416 261.21 74.4664 260.982 74.5246C260.754 74.5828 260.513 74.5719 260.291 74.4933C260.069 74.4147 259.876 74.2718 259.735 74.083C259.595 73.8941 259.514 73.6678 259.502 73.4326C259.49 73.1975 259.549 72.9642 259.67 72.7624C259.791 72.5606 259.97 72.3993 260.183 72.2992C260.396 72.1991 260.634 72.1645 260.867 72.1999C261.021 72.2213 261.169 72.2731 261.302 72.3523C261.436 72.4315 261.553 72.5364 261.646 72.6611C261.738 72.7858 261.806 72.9277 261.843 73.0785C261.88 73.2293 261.888 73.3861 261.864 73.5397Z" fill="white"/>
</g>
<path d="M39.5811 1.41197C39.5811 3.22372 42.4129 3.22372 42.3824 1.41197C42.352 -0.39979 39.5582 -0.407403 39.5811 1.41197Z" fill="#E6E6E6"/>
<path d="M18.3957 19.8645L21.1438 20.816C22.1334 24.6755 21.905 24.6223 24.2496 21.4098C28.2766 21.6382 28.1015 21.9122 25.7721 18.6389C27.2261 14.8783 27.4316 15.1296 23.6026 16.3552C20.4739 13.805 20.7784 13.6832 20.7403 17.6949C20.6033 17.969 17.3376 19.3468 18.3957 19.8645Z" fill="#E6E6E6"/>
<path d="M80.6805 29.6693V29.7683C80.315 33.4976 78.8658 37.0384 76.5115 39.9537C74.1572 42.8691 71.0009 45.0314 67.4321 46.1738C63.8633 47.3163 60.038 47.389 56.4284 46.3829C52.8188 45.3768 49.5826 43.3359 47.1193 40.5121C44.656 37.6883 43.0733 34.2051 42.5665 30.4923C42.0597 26.7794 42.6509 22.9995 44.2672 19.6188C45.8836 16.2381 48.4543 13.4045 51.6622 11.4677C54.8701 9.53098 58.5749 8.57574 62.3193 8.7199C59.9372 9.49752 57.7851 10.8539 56.056 12.6676C54.3269 14.4813 53.0747 16.6956 52.4116 19.1122C51.7485 21.5287 51.6952 24.072 52.2566 26.5142C52.8179 28.9563 53.9763 31.2211 55.628 33.1056C57.2796 34.9901 59.373 36.4355 61.7205 37.3121C64.068 38.1888 66.5963 38.4695 69.0789 38.129C71.5615 37.7884 73.9209 36.8373 75.9457 35.3609C77.9704 33.8845 79.5973 31.9289 80.6805 29.6693Z" fill="#F3485C"/>
<path d="M110.696 11.5822H106.319C106.343 11.4235 106.356 11.2632 106.357 11.1026V9.99883C106.357 9.06204 105.985 8.16363 105.323 7.50122C104.66 6.83881 103.762 6.46667 102.825 6.46667C102.065 6.46446 101.324 6.71035 100.716 7.16701C100.541 5.83931 99.869 4.62745 98.8353 3.7759C97.8017 2.92435 96.4836 2.49647 95.1469 2.57856C93.8102 2.66066 92.5544 3.24662 91.6328 4.21826C90.7111 5.18989 90.1922 6.4749 90.1808 7.81407V9.45835C90.1796 10.19 90.3327 10.9137 90.6299 11.5822H86.9988C86.7311 11.5655 86.4629 11.6038 86.2105 11.6948C85.9582 11.7858 85.7272 11.9274 85.5317 12.1111C85.3363 12.2948 85.1805 12.5165 85.074 12.7627C84.9675 13.0088 84.9126 13.2742 84.9126 13.5424C84.9126 13.8106 84.9675 14.076 85.074 14.3222C85.1805 14.5683 85.3363 14.7901 85.5317 14.9737C85.7272 15.1574 85.9582 15.2991 86.2105 15.39C86.4629 15.481 86.7311 15.5193 86.9988 15.5026H110.696C111.195 15.4715 111.663 15.2515 112.005 14.8873C112.348 14.5231 112.538 14.0421 112.538 13.5424C112.538 13.0427 112.348 12.5618 112.005 12.1976C111.663 11.8334 111.195 11.6133 110.696 11.5822Z" fill="#E0E0E0"/>
<path d="M17.5735 60.964L19.9867 60.5605V55.9931C19.9867 52.3391 23.3437 49.7889 26.9977 49.7889C28.7501 49.7889 30.4308 50.4851 31.67 51.7243C32.9091 52.9634 33.6053 54.6441 33.6053 56.3965V57.0588C34.4575 56.34 35.5354 55.9439 36.6503 55.9398C37.2747 55.9388 37.8932 56.0609 38.4704 56.2992C39.0476 56.5374 39.5721 56.8872 40.014 57.3284C40.4559 57.7696 40.8065 58.2936 41.0457 58.8704C41.2849 59.4472 41.408 60.0655 41.408 60.6899V60.9944H44.7727C45.5768 61.0341 46.3349 61.3814 46.8899 61.9645C47.445 62.5476 47.7546 63.3219 47.7546 64.1269C47.7546 64.932 47.445 65.7062 46.8899 66.2893C46.3349 66.8725 45.5768 67.2198 44.7727 67.2595H17.5735C16.7694 67.2198 16.0114 66.8725 15.4563 66.2893C14.9013 65.7062 14.5917 64.932 14.5917 64.1269C14.5917 63.3219 14.9013 62.5476 15.4563 61.9645C16.0114 61.3814 16.7694 61.0341 17.5735 60.9944V60.964Z" fill="#E0E0E0"/>
<path d="M202.236 311.276L321.226 242.634C322.862 241.698 322.862 240.168 321.226 239.224L152.671 141.892C151.756 141.426 150.744 141.184 149.718 141.184C148.691 141.184 147.679 141.426 146.764 141.892L27.7742 210.563C26.1452 211.5 26.1452 213.03 27.7742 213.966L196.359 311.276C197.27 311.736 198.277 311.976 199.297 311.976C200.318 311.976 201.325 311.736 202.236 311.276Z" fill="#22252C"/>
<path d="M226.162 149.085L220.924 146.063L226.162 144.548V149.085Z" fill="#F3485C"/>
<path opacity="0.6" d="M226.162 149.085L220.924 146.063L226.162 144.548V149.085Z" fill="black"/>
<path d="M199.914 159.705V164.523L169.708 147.045V142.227L199.914 159.705Z" fill="#F3485C"/>
<path opacity="0.6" d="M199.914 159.705V164.523L169.708 147.045V142.227L199.914 159.705Z" fill="black"/>
<path d="M167.089 104.408L197.295 121.886V161.22L167.089 143.734V104.408Z" fill="#F3485C"/>
<path opacity="0.55" d="M167.089 104.408L197.295 121.886V161.22L167.089 143.734V104.408Z" fill="black"/>
<path d="M197.295 121.886L231.399 102.2V141.526L197.295 161.22V121.886Z" fill="#F3485C"/>
<path opacity="0.45" d="M197.295 121.886L231.399 102.2V141.526L197.295 161.22V121.886Z" fill="black"/>
<path d="M231.399 102.2L201.193 84.7147L167.089 104.408L197.295 121.886L231.399 102.2Z" fill="#F3485C"/>
<path opacity="0.3" d="M231.399 102.2L201.193 84.7147L167.089 104.408L197.295 121.886L231.399 102.2Z" fill="black"/>
<path d="M199.914 123.401L228.78 106.737V115.811L199.914 132.475V123.401Z" fill="#F3485C"/>
<path opacity="0.2" d="M199.914 123.401L228.78 106.737V115.811L199.914 132.475V123.401Z" fill="black"/>
<path opacity="0.2" d="M199.914 135.505L228.78 118.834V140.011L199.914 156.683V135.505Z" fill="black"/>
<path d="M199.914 164.523L202.54 163.016V158.19L199.914 159.705V164.523Z" fill="#F3485C"/>
<path opacity="0.55" d="M199.914 164.523L202.54 163.016V158.19L199.914 159.705V164.523Z" fill="black"/>
<path d="M226.162 149.085L228.78 147.578V143.033L226.162 144.548V149.085Z" fill="#F3485C"/>
<path opacity="0.55" d="M226.162 149.085L228.78 147.578V143.033L226.162 144.548V149.085Z" fill="black"/>
<path d="M208.866 120.151C208.866 120.562 210.115 120.151 211.66 119.29L216.547 116.466C218.07 115.575 219.341 114.517 219.341 114.099V113.337L208.866 119.382V120.151Z" fill="#22252C"/>
<path opacity="0.2" d="M228.78 140.011L210.571 129.354L199.914 135.505V156.683L228.78 140.011Z" fill="black"/>
<path opacity="0.1" d="M222.917 63.7881C225.846 51.3777 218.16 38.9425 205.749 36.0134C193.339 33.0842 180.904 40.7703 177.975 53.1808C175.046 65.5912 182.732 78.0264 195.142 80.9555C207.553 83.8846 219.988 76.1985 222.917 63.7881Z" fill="#F3485C"/>
<path opacity="0.1" d="M230.229 65.5141C234.112 49.065 223.924 32.5832 207.475 28.7009C191.026 24.8185 174.544 35.0059 170.662 51.4549C166.78 67.9039 176.967 84.3858 193.416 88.2681C209.865 92.1504 226.347 81.9631 230.229 65.5141Z" fill="#F3485C"/>
<path opacity="0.1" d="M237.549 67.2417C242.386 46.75 229.695 26.2174 209.203 21.3809C188.711 16.5444 168.179 29.2355 163.342 49.7272C158.506 70.219 171.197 90.7516 191.689 95.5881C212.18 100.425 232.713 87.7334 237.549 67.2417Z" fill="#F3485C"/>
<path d="M207.983 97.1382C207.99 96.9359 207.969 96.7337 207.922 96.5368C207.435 94.3242 206.13 92.3773 204.268 91.0863H196.656C194.798 92.3816 193.495 94.3266 193.002 96.5368C192.961 96.7346 192.943 96.9363 192.949 97.1382V97.2371C193.017 98.2953 193.71 99.3382 195.141 100.145C196.792 100.982 198.618 101.419 200.47 101.419C202.321 101.419 204.147 100.982 205.798 100.145C207.191 99.3382 207.915 98.2953 207.991 97.2371C207.976 97.2371 207.983 97.1382 207.983 97.1382Z" fill="#22252C"/>
<path d="M196.831 90.9645C194.829 92.1216 194.829 94.0095 196.831 95.1513C197.953 95.7181 199.193 96.0133 200.451 96.0133C201.708 96.0133 202.948 95.7181 204.07 95.1513C206.072 93.9943 206.072 92.1064 204.07 90.9645C202.948 90.3978 201.708 90.1025 200.451 90.1025C199.193 90.1025 197.953 90.3978 196.831 90.9645Z" fill="#22252C"/>
<path d="M201.475 65.4857H199.389V92.2586C199.383 92.3584 199.408 92.4576 199.462 92.5422C199.515 92.6268 199.593 92.6927 199.686 92.7306C199.913 92.8469 200.165 92.9075 200.42 92.9075C200.676 92.9075 200.927 92.8469 201.155 92.7306C201.383 92.6012 201.482 92.4261 201.452 92.2586L201.475 65.4857Z" fill="#22252C"/>
<path d="M215.306 64.5874L208.326 46.7439H192.583L185.587 64.5874C184.598 67.3812 185.96 70.3957 189.713 72.5576C195.643 75.9832 205.25 75.9832 211.173 72.5576C214.933 70.3957 216.304 67.3812 215.306 64.5874Z" fill="#F3485C"/>
<path opacity="0.4" d="M215.306 64.5874L208.326 46.7439H192.583L185.587 64.5874C184.598 67.3812 185.96 70.3957 189.713 72.5576C195.643 75.9832 205.25 75.9832 211.173 72.5576C214.933 70.3957 216.304 67.3812 215.306 64.5874Z" fill="white"/>
<path d="M200.454 52.3771C204.898 52.3771 208.501 50.2981 208.501 47.7335C208.501 45.169 204.898 43.09 200.454 43.09C196.011 43.09 192.408 45.169 192.408 47.7335C192.408 50.2981 196.011 52.3771 200.454 52.3771Z" fill="#F3485C"/>
<path opacity="0.7" d="M200.454 52.3771C204.898 52.3771 208.501 50.2981 208.501 47.7335C208.501 45.169 204.898 43.09 200.454 43.09C196.011 43.09 192.408 45.169 192.408 47.7335C192.408 50.2981 196.011 52.3771 200.454 52.3771Z" fill="white"/>
<path d="M200.454 51.2352C198.738 51.2763 197.039 50.8752 195.522 50.0705C194.372 49.4083 193.74 48.5481 193.74 47.7335C193.74 46.919 194.372 46.0588 195.522 45.3965C197.05 44.6256 198.739 44.224 200.451 44.224C202.163 44.224 203.851 44.6256 205.38 45.3965C206.537 46.0588 207.169 46.919 207.169 47.7335C207.169 48.5481 206.537 49.4083 205.38 50.0705C203.865 50.8746 202.169 51.2756 200.454 51.2352Z" fill="#F3485C"/>
<path d="M47.3762 216.318L43.57 214.111C42.9911 213.734 42.509 213.226 42.1626 212.628C41.8161 212.03 41.615 211.36 41.5755 210.67V151.186C41.6145 150.496 41.8153 149.824 42.1617 149.225C42.5082 148.626 42.9905 148.116 43.57 147.738L154.407 83.7404C155.023 83.4287 155.703 83.2662 156.394 83.2662C157.084 83.2662 157.765 83.4287 158.381 83.7404L162.225 85.9404C162.806 86.3168 163.29 86.8256 163.636 87.425C163.983 88.0244 164.183 88.6973 164.219 89.3888V148.903C164.183 149.594 163.983 150.267 163.636 150.867C163.29 151.466 162.806 151.975 162.225 152.351L51.3575 216.318C50.7402 216.63 50.0583 216.793 49.3668 216.793C48.6753 216.793 47.9934 216.63 47.3762 216.318Z" fill="#F3485C"/>
<path opacity="0.3" d="M47.3762 216.318L43.57 214.111C42.9911 213.734 42.509 213.226 42.1626 212.628C41.8161 212.03 41.615 211.36 41.5755 210.67V151.186C41.6145 150.496 41.8153 149.824 42.1617 149.225C42.5082 148.626 42.9905 148.116 43.57 147.738L154.407 83.7404C155.023 83.4287 155.703 83.2662 156.394 83.2662C157.084 83.2662 157.765 83.4287 158.381 83.7404L162.225 85.9404C162.806 86.3168 163.29 86.8256 163.636 87.425C163.983 88.0244 164.183 88.6973 164.219 89.3888V148.903C164.183 149.594 163.983 150.267 163.636 150.867C163.29 151.466 162.806 151.975 162.225 152.351L51.3575 216.318C50.7402 216.63 50.0583 216.793 49.3668 216.793C48.6753 216.793 47.9934 216.63 47.3762 216.318Z" fill="black"/>
<path d="M164.219 89.3888V148.903C164.183 149.594 163.983 150.267 163.636 150.866C163.29 151.466 162.806 151.975 162.225 152.351L51.3575 216.318C50.2537 216.95 49.363 216.432 49.363 215.169V155.678C49.4008 154.987 49.6011 154.314 49.9476 153.715C50.2942 153.116 50.7772 152.607 51.3575 152.229L162.225 88.2393C163.329 87.6074 164.219 88.1175 164.219 89.3888Z" fill="#F3485C"/>
<path opacity="0.45" d="M164.219 89.3888V148.903C164.183 149.594 163.983 150.267 163.636 150.866C163.29 151.466 162.806 151.975 162.225 152.351L51.3575 216.318C50.2537 216.95 49.363 216.432 49.363 215.169V155.678C49.4008 154.987 49.6011 154.314 49.9476 153.715C50.2942 153.116 50.7772 152.607 51.3575 152.229L162.225 88.2393C163.329 87.6074 164.219 88.1175 164.219 89.3888Z" fill="black"/>
<path d="M50.8931 216.524C50.3239 216.733 49.7176 216.821 49.1124 216.785C48.5072 216.748 47.9161 216.587 47.3762 216.311L43.57 214.111C42.9921 213.733 42.5112 213.225 42.166 212.627C41.8209 212.03 41.6212 211.359 41.5831 210.67V151.187C41.6062 150.496 41.8053 149.822 42.1617 149.23L49.9872 153.721C49.6309 154.314 49.4318 154.987 49.4087 155.678V215.169C49.3706 216.25 50.0253 216.783 50.8931 216.524Z" fill="#F3485C"/>
<path opacity="0.55" d="M50.8931 216.524C50.3239 216.733 49.7176 216.821 49.1124 216.785C48.5072 216.748 47.9161 216.587 47.3762 216.311L43.57 214.111C42.9921 213.733 42.5112 213.225 42.166 212.627C41.8209 212.03 41.6212 211.359 41.5831 210.67V151.187C41.6062 150.496 41.8053 149.822 42.1617 149.23L49.9872 153.721C49.6309 154.314 49.4318 154.987 49.4087 155.678V215.169C49.3706 216.25 50.0253 216.783 50.8931 216.524Z" fill="black"/>
<path d="M208.897 279.395L199.686 274.066C199.378 273.909 199.038 273.826 198.692 273.826C198.347 273.826 198.006 273.909 197.699 274.066L188.488 279.395C188.191 279.584 187.947 279.846 187.78 280.156C187.78 280.217 187.726 280.286 187.696 280.347C187.577 280.584 187.507 280.843 187.49 281.108V296.051C187.511 296.379 187.604 296.698 187.764 296.985C187.923 297.272 188.144 297.52 188.412 297.71C188.412 297.71 188.457 297.756 188.488 297.771L197.699 303.1C197.735 303.12 197.773 303.135 197.813 303.146C197.924 303.204 198.042 303.25 198.163 303.283C198.335 303.322 198.512 303.343 198.688 303.344C199.036 303.35 199.38 303.266 199.686 303.1L208.897 297.771C209.186 297.583 209.427 297.329 209.6 297.03C209.773 296.731 209.874 296.396 209.894 296.051V281.115C209.874 280.771 209.773 280.435 209.6 280.137C209.427 279.838 209.186 279.584 208.897 279.395Z" fill="#455A64"/>
<path d="M199.686 303.1L208.897 297.771C209.186 297.583 209.427 297.329 209.6 297.03C209.773 296.731 209.874 296.396 209.894 296.051V281.115C209.894 280.484 209.445 280.225 208.897 280.544L199.686 285.873C199.396 286.063 199.156 286.319 198.984 286.619C198.812 286.919 198.713 287.256 198.696 287.601V302.544C198.688 303.161 199.137 303.435 199.686 303.1Z" fill="#22252C"/>
<path d="M308.81 221.723L299.599 216.395C299.291 216.237 298.951 216.155 298.605 216.155C298.26 216.155 297.919 216.237 297.612 216.395L288.401 221.723C288.103 221.911 287.858 222.173 287.693 222.484C287.693 222.538 287.639 222.606 287.609 222.667C287.49 222.904 287.42 223.163 287.404 223.428V238.379C287.424 238.707 287.517 239.026 287.677 239.313C287.836 239.6 288.057 239.848 288.325 240.039C288.348 240.061 288.374 240.081 288.401 240.1L297.604 245.428C297.64 245.448 297.679 245.463 297.718 245.474C297.83 245.532 297.947 245.578 298.069 245.611C298.241 245.65 298.417 245.671 298.594 245.672C298.942 245.677 299.285 245.593 299.591 245.428L308.802 240.1C309.09 239.91 309.33 239.656 309.502 239.357C309.674 239.059 309.773 238.723 309.792 238.379V223.444C309.774 223.1 309.676 222.765 309.505 222.467C309.335 222.168 309.096 221.913 308.81 221.723Z" fill="#455A64"/>
<path d="M299.606 245.428L308.817 240.1C309.106 239.91 309.345 239.656 309.517 239.357C309.689 239.058 309.788 238.723 309.807 238.379V223.444C309.807 222.812 309.365 222.553 308.817 222.873L299.606 228.201C299.316 228.391 299.075 228.646 298.901 228.946C298.728 229.246 298.628 229.583 298.609 229.929V244.873C298.609 245.489 299.058 245.748 299.606 245.428Z" fill="#22252C"/>
<path d="M160.238 131.881L53.3443 193.58C52.1854 194.334 51.2208 195.351 50.529 196.548C49.8372 197.745 49.4377 199.089 49.363 200.469V204.276C49.4371 205.657 49.8363 207.002 50.5281 208.201C51.2199 209.399 52.1848 210.417 53.3443 211.172L194.715 292.778C195.947 293.405 197.31 293.731 198.692 293.731C200.075 293.731 201.438 293.405 202.67 292.778L309.563 231.117C310.723 230.362 311.688 229.344 312.38 228.145C313.071 226.947 313.471 225.602 313.545 224.22V220.414C313.47 219.033 313.07 217.69 312.379 216.493C311.687 215.296 310.722 214.279 309.563 213.525L168.193 131.881C166.961 131.254 165.598 130.927 164.215 130.927C162.833 130.927 161.47 131.254 160.238 131.881Z" fill="#455A64"/>
<path d="M313.545 220.399V224.205C313.469 225.585 313.07 226.929 312.378 228.126C311.686 229.323 310.722 230.34 309.563 231.094L202.67 292.778C201.447 293.424 200.079 293.749 198.696 293.722V280.78C200.08 280.809 201.448 280.481 202.67 279.829L309.571 218.1C311.619 216.905 311.756 215.055 309.974 213.761C311.019 214.538 311.88 215.536 312.497 216.683C313.114 217.83 313.471 219.098 313.545 220.399Z" fill="#22252C"/>
<path d="M53.3519 198.178C51.2585 196.968 51.152 195.057 53.0398 193.786C51.9679 194.555 51.0815 195.555 50.4454 196.711C49.8092 197.868 49.4395 199.152 49.363 200.469V204.275C49.4371 205.657 49.8363 207.002 50.5281 208.2C51.2199 209.399 52.1848 210.417 53.3443 211.172L194.715 292.777C195.938 293.432 197.309 293.76 198.696 293.729V280.788C197.309 280.818 195.938 280.49 194.715 279.836L53.3519 198.178Z" fill="#22252C"/>
<path d="M160.238 110.361L53.3443 172.06C52.1858 172.814 51.2215 173.831 50.5298 175.028C49.838 176.225 49.4383 177.568 49.363 178.949V187.003C49.4371 188.385 49.8363 189.729 50.5281 190.928C51.2199 192.126 52.1848 193.145 53.3443 193.9L194.715 275.513C195.947 276.14 197.31 276.466 198.692 276.466C200.075 276.466 201.438 276.14 202.67 275.513L309.563 213.852C310.723 213.097 311.688 212.078 312.38 210.88C313.071 209.682 313.471 208.337 313.545 206.955V198.871C313.469 197.49 313.07 196.147 312.378 194.95C311.686 193.753 310.722 192.736 309.563 191.981L168.193 110.361C166.96 109.738 165.597 109.414 164.215 109.414C162.834 109.414 161.471 109.738 160.238 110.361Z" fill="#F3485C"/>
<path opacity="0.8" d="M53.3443 176.658L194.715 258.27C195.947 258.897 197.31 259.224 198.692 259.224C200.075 259.224 201.438 258.897 202.67 258.27L309.563 196.61C311.763 195.339 311.763 193.283 309.563 192.042L168.193 110.361C166.96 109.738 165.597 109.414 164.215 109.414C162.834 109.414 161.471 109.738 160.238 110.361L53.3443 172.06C51.1443 173.331 51.1443 175.386 53.3443 176.658Z" fill="white"/>
<path opacity="0.5" d="M313.545 198.878V206.932C313.463 208.306 313.061 209.642 312.369 210.832C311.678 212.022 310.717 213.033 309.563 213.783L202.67 275.52C201.447 276.167 200.079 276.492 198.696 276.464V259.222C200.079 259.25 201.447 258.925 202.67 258.278L309.571 196.579C311.619 195.384 311.756 193.534 309.974 192.24C311.018 193.019 311.879 194.017 312.496 195.163C313.112 196.31 313.47 197.578 313.545 198.878Z" fill="white"/>
<path opacity="0.6" d="M53.3519 176.658C51.2585 175.455 51.152 173.537 53.0398 172.265C51.9687 173.036 51.0829 174.036 50.4468 175.192C49.8108 176.348 49.4405 177.632 49.363 178.949V187.003C49.4371 188.385 49.8363 189.729 50.5281 190.928C51.2199 192.126 52.1848 193.145 53.3443 193.9L194.715 275.513C195.938 276.167 197.309 276.495 198.696 276.464V259.222C197.31 259.251 195.94 258.926 194.715 258.278L53.3519 176.658Z" fill="white"/>
<path d="M72.0632 187.475V217.65L198.673 290.73V259.222C197.284 259.248 195.911 258.921 194.684 258.27L72.0632 187.475Z" fill="#F3485C"/>
<path opacity="0.3" d="M72.0632 187.475V217.65L198.673 290.73V259.222C197.284 259.248 195.911 258.921 194.684 258.27L72.0632 187.475Z" fill="black"/>
<path d="M309.571 196.579C311.619 195.384 311.756 193.534 309.974 192.24C311.02 193.018 311.882 194.015 312.5 195.162C313.118 196.309 313.477 197.578 313.552 198.878V224.456L198.696 290.745V259.222C200.079 259.248 201.446 258.923 202.67 258.278L309.571 196.579Z" fill="#F3485C"/>
<path opacity="0.45" d="M309.571 196.579C311.619 195.384 311.756 193.534 309.974 192.24C311.02 193.018 311.882 194.015 312.5 195.162C313.118 196.309 313.477 197.578 313.552 198.878V224.456L198.696 290.745V259.222C200.079 259.248 201.446 258.923 202.67 258.278L309.571 196.579Z" fill="black"/>
<path d="M309.571 191.981L186.95 121.186L72.0632 187.475L194.692 258.27C195.924 258.897 197.287 259.224 198.669 259.224C200.052 259.224 201.415 258.897 202.647 258.27L309.54 196.61C311.763 195.339 311.763 193.253 309.571 191.981Z" fill="#F3485C"/>
<path opacity="0.2" d="M309.571 191.981L186.95 121.186L72.0632 187.475L194.692 258.27C195.924 258.897 197.287 259.224 198.669 259.224C200.052 259.224 201.415 258.897 202.647 258.27L309.54 196.61C311.763 195.339 311.763 193.253 309.571 191.981Z" fill="black"/>
<path opacity="0.2" d="M87.0217 196.1V226.329L88.8943 227.349L88.8867 197.173L87.0217 196.1Z" fill="black"/>
<path opacity="0.1" d="M87.0217 196.1L201.886 129.796L203.827 130.937L88.8867 197.173L87.0217 196.1Z" fill="black"/>
<path d="M186.881 128.547C188.176 123.82 186.272 121.353 183.661 116.961C181.05 112.569 174.998 104.081 172.517 100.442C170.035 96.8033 167.272 93.2331 165.78 92.7307C164.288 92.2283 163.298 91.6345 159.363 93.0504C155.427 94.4663 147.266 99.3231 137.157 104.895C127.048 110.468 113.559 118.385 112.95 123.835C112.569 127.215 130.367 156.911 134.691 157.33C144.32 158.319 154.483 151.141 159.812 147.906C168.749 142.516 175.143 138.535 181.34 134.34C184.156 132.46 186.288 130.74 186.881 128.547Z" fill="#F0F0F0"/>
<path d="M117.631 135.748C119.991 139.555 126.85 149.938 129.233 153.006C131.615 156.074 135.756 159.56 136.723 155.624C137.69 151.689 133.998 146.726 131.501 142.828C129.004 138.93 122.001 129.727 119.74 126.72C117.479 123.713 113.696 120.782 112.805 124.299C111.914 127.816 115.279 131.927 117.631 135.748Z" fill="#E0E0E0"/>
<path d="M132.963 160.024C134.257 155.297 132.346 152.831 129.735 148.438C127.124 144.046 121.08 135.558 118.598 131.919C116.116 128.281 113.353 124.71 111.861 124.208C110.369 123.706 109.372 123.112 105.444 124.528C101.516 125.944 93.34 130.8 83.2383 136.373C73.1366 141.945 59.6398 149.854 59.0308 155.312C58.6426 158.685 76.448 188.388 80.7719 188.807C90.394 189.797 100.564 182.618 105.893 179.383C114.837 173.993 121.232 170.012 127.421 165.81C130.222 163.937 132.354 162.217 132.963 160.024Z" fill="#F0F0F0"/>
<path d="M63.6896 167.226C66.0418 171.032 72.9082 181.415 75.2909 184.483C77.6736 187.551 81.8148 191.03 82.7739 187.102C83.7331 183.174 80.0563 178.203 77.5518 174.305C75.0473 170.408 68.0591 161.204 65.7906 158.197C63.5221 155.191 59.7464 152.26 58.8557 155.777C57.9651 159.294 61.3526 163.404 63.6896 167.226Z" fill="#E0E0E0"/>
<path opacity="0.2" d="M252.577 194.303C250.042 193.163 247.383 192.325 244.652 191.806C238.798 190.581 232.739 190.056 226.991 188.579C220.901 187.003 214.88 185.313 208.653 184.278C202.249 183.123 195.987 181.288 189.972 178.804L189.249 178.515C179.969 174.785 171.025 168.764 161.205 166.678C155.584 165.475 149.775 165.452 144.145 166.609C142.897 166.868 141.489 167.332 141.017 168.52C140.377 170.141 141.907 171.71 143.034 173.042C146.52 177.152 147 183.083 150.037 187.505C153.166 192.073 159.172 196.054 164.28 198.231C172.045 201.543 177.594 203.438 185.595 206.186C189.592 207.564 195.255 208.653 198.962 210.7C203.888 213.426 209.825 217.049 214.492 220.193C219.996 223.893 226.672 227.219 233.256 228.3C236.849 228.894 240.724 228.559 243.815 226.641C244.256 226.367 244.736 225.948 244.652 225.43C244.568 224.913 243.891 224.669 243.381 224.532L240.138 223.771C239.811 223.695 239.415 223.527 239.43 223.192C239.445 222.857 239.795 222.743 240.092 222.667C240.557 222.58 240.999 222.402 241.394 222.142C241.586 222.005 241.73 221.809 241.804 221.585C241.878 221.36 241.878 221.118 241.805 220.893C241.554 220.33 240.793 220.254 240.176 220.262C235.403 220.315 230.485 220.117 226.131 218.161C225.012 217.658 224.023 217.087 223.939 215.801C223.872 215.121 223.939 214.435 224.138 213.782C224.336 213.129 224.662 212.522 225.096 211.995C226.09 210.922 227.316 210.091 228.681 209.566C230.737 208.66 232.868 208.219 234.825 207.024C236.731 205.866 238.391 204.345 239.712 202.547C240.018 202.062 240.404 201.632 240.854 201.276C241.798 200.644 242.703 200.918 243.716 200.964C244.949 201.017 246.197 201.002 247.423 200.964C249.882 200.948 252.323 200.555 254.662 199.799C255.391 199.606 256.04 199.184 256.512 198.597C257.806 196.579 253.878 194.927 252.577 194.303Z" fill="black"/>
<path opacity="0.1" d="M268.494 174.647C277.51 165.63 277.51 151.012 268.494 141.995C259.477 132.978 244.858 132.978 235.842 141.995C226.825 151.012 226.825 165.63 235.842 174.647C244.858 183.664 259.477 183.664 268.494 174.647Z" fill="#F3485C"/>
<path opacity="0.1" d="M273.807 179.96C285.757 168.009 285.757 148.633 273.807 136.682C261.856 124.731 242.48 124.731 230.529 136.682C218.578 148.633 218.578 168.009 230.529 179.96C242.48 191.911 261.856 191.911 273.807 179.96Z" fill="#F3485C"/>
<path opacity="0.1" d="M289.806 164.435C293.179 143.652 279.066 124.07 258.283 120.696C237.501 117.323 217.918 131.436 214.545 152.219C211.171 173.001 225.284 192.584 246.067 195.957C266.85 199.331 286.432 185.218 289.806 164.435Z" fill="#F3485C"/>
<path d="M228.179 150.943C228.103 153.638 227.989 156.332 227.745 159.012C227.66 161.209 227.205 163.376 226.398 165.422C225.362 167.586 223.723 169.405 221.678 170.659C219.633 171.896 217.378 172.745 215.025 173.163C212.146 173.761 209.15 173.361 206.529 172.029C204.398 170.895 202.67 168.756 202.586 166.343C202.502 163.93 204.466 161.463 206.879 161.501C206.193 160.919 205.673 160.166 205.371 159.318C205.068 158.471 204.994 157.559 205.156 156.674C205.318 155.789 205.711 154.962 206.294 154.276C206.877 153.591 207.63 153.071 208.478 152.77C209.621 152.456 210.796 152.275 211.98 152.229C213.456 152.047 214.796 151.773 215.847 150.638C216.519 149.845 217.064 148.951 217.461 147.989C218.366 146.033 219.12 144.008 220.171 142.135C221.169 140.211 222.682 138.601 224.54 137.484C226.061 136.57 227.862 136.235 229.61 136.54C230.622 136.685 231.323 136.784 230.828 138.131C230.607 138.732 229.252 140.057 229.123 140.704C228.74 142.261 228.456 143.839 228.27 145.431C228.118 147.236 228.225 149.116 228.179 150.943Z" fill="#22252C"/>
<path d="M250.955 166.746C251.602 166.442 252.325 162.293 252.013 159.24C251.701 156.188 253.11 155.609 253.665 156.614C253.989 157.177 254.201 157.798 254.289 158.441C255.672 158.921 256.895 159.775 257.822 160.907C259.253 162.742 260.943 164.965 259.892 169.327C259.694 170.164 258.766 171.253 258.263 172.463C257.502 174.351 258.096 182.512 257.418 190.984C257.22 193.451 256.482 197.485 254.221 198.262C251.716 199.145 248.671 196.496 246.822 194.577C241.287 188.929 236.728 183.121 236.728 183.121L232.373 162.323C237.702 160.626 239.681 163.382 242.566 168.626C246.19 175.211 249.418 181.796 249.418 181.796C250.27 176.467 250.894 175.447 249.829 173.232" fill="#FFA8A7"/>
<path d="M260.851 159.073L246.822 150.296C246.692 150.202 246.54 150.144 246.381 150.128C246.222 150.112 246.061 150.138 245.916 150.204C245.695 150.326 244.812 150.76 244.568 150.874C244.431 150.941 244.314 151.042 244.227 151.167C244.14 151.292 244.087 151.438 244.074 151.59L242.582 160.154C242.537 160.538 242.596 160.926 242.754 161.279C242.913 161.631 243.163 161.934 243.48 162.156L257.517 170.933C257.638 171.021 257.778 171.077 257.925 171.097C258.073 171.117 258.223 171.1 258.362 171.047C258.613 170.941 259.573 170.469 259.824 170.332C259.945 170.258 260.047 170.157 260.122 170.037C260.198 169.916 260.244 169.78 260.258 169.639C260.631 167.492 261.361 163.229 261.727 161.083C261.777 160.7 261.721 160.31 261.567 159.957C261.413 159.603 261.166 159.297 260.851 159.073Z" fill="#F3485C"/>
<path opacity="0.35" d="M259.443 159.766L245.406 150.988C245.273 150.889 245.114 150.829 244.949 150.816C244.783 150.802 244.617 150.836 244.469 150.912L244.546 150.867C244.797 150.76 245.68 150.319 245.901 150.204C246.044 150.137 246.204 150.109 246.362 150.125C246.521 150.141 246.672 150.2 246.799 150.296L260.851 159.08C261.045 159.211 261.213 159.376 261.346 159.568L259.961 160.245C259.961 160.245 259.961 160.245 259.999 160.314C259.857 160.092 259.667 159.905 259.443 159.766Z" fill="black"/>
<path opacity="0.45" d="M243.487 162.156L257.525 170.933C257.643 171.029 257.785 171.09 257.936 171.11C258.087 171.13 258.241 171.107 258.38 171.045C258.519 170.983 258.638 170.883 258.723 170.757C258.809 170.631 258.858 170.484 258.865 170.332C259.238 168.185 259.968 163.922 260.334 161.768C260.382 161.384 260.325 160.995 260.168 160.642C260.011 160.289 259.76 159.986 259.443 159.766L245.406 150.988C245.288 150.89 245.144 150.827 244.992 150.806C244.84 150.785 244.685 150.807 244.545 150.87C244.405 150.932 244.285 151.033 244.199 151.16C244.113 151.288 244.064 151.436 244.058 151.59L242.582 160.154C242.537 160.538 242.598 160.928 242.758 161.28C242.917 161.633 243.169 161.935 243.487 162.156Z" fill="black"/>
<path opacity="0.35" d="M258.872 165.049C259.004 165.15 259.107 165.285 259.171 165.438C259.235 165.592 259.258 165.759 259.238 165.924C259.235 165.989 259.215 166.052 259.178 166.106C259.142 166.16 259.092 166.203 259.032 166.23C258.973 166.257 258.907 166.267 258.843 166.259C258.778 166.25 258.717 166.224 258.667 166.183C258.533 166.084 258.429 165.949 258.366 165.795C258.303 165.641 258.283 165.472 258.309 165.307C258.309 165.242 258.328 165.179 258.364 165.124C258.399 165.07 258.449 165.026 258.508 164.999C258.567 164.972 258.633 164.962 258.697 164.971C258.762 164.98 258.822 165.007 258.872 165.049Z" fill="black"/>
<path d="M244.599 161.539C244.458 161.431 244.346 161.289 244.273 161.127C244.2 160.965 244.168 160.788 244.18 160.611L245.703 152.085L258.263 159.979C258.403 160.088 258.514 160.23 258.587 160.392C258.66 160.553 258.692 160.73 258.682 160.908L257.159 169.426L244.599 161.539Z" fill="#F3485C"/>
<path opacity="0.7" d="M244.599 161.539C244.458 161.431 244.346 161.289 244.273 161.127C244.2 160.965 244.168 160.788 244.18 160.611L245.703 152.085L258.263 159.979C258.403 160.088 258.514 160.23 258.587 160.392C258.66 160.553 258.692 160.73 258.682 160.908L257.159 169.426L244.599 161.539Z" fill="white"/>
<path d="M257.22 169.068L257.159 169.426L244.591 161.539C244.453 161.429 244.344 161.287 244.273 161.125C244.201 160.963 244.169 160.787 244.18 160.611L245.703 152.085L246.007 152.283L244.538 160.451C244.527 160.628 244.56 160.805 244.633 160.967C244.706 161.128 244.817 161.27 244.957 161.38L257.22 169.068Z" fill="#F3485C"/>
<path opacity="0.55" d="M261.734 161.083C261.369 163.229 260.631 167.492 260.265 169.639C260.253 169.781 260.208 169.917 260.132 170.038C260.057 170.159 259.954 170.259 259.831 170.332C259.58 170.469 258.621 170.941 258.377 171.093H258.316C258.472 171.032 258.607 170.928 258.705 170.793C258.804 170.659 258.862 170.498 258.872 170.332C259.238 168.185 259.968 163.922 260.334 161.768C260.407 161.228 260.265 160.681 259.938 160.245L261.339 159.56C261.658 159.999 261.8 160.543 261.734 161.083Z" fill="black"/>
<path d="M250.727 166.723C250.285 166.259 250.255 164.904 249.562 163.678C248.755 162.24 246.517 162.354 247.088 163.503C247.659 164.653 247.781 165.673 247.971 168.497C248.162 171.321 248.786 171.611 249.813 173.247L250.963 166.898L250.727 166.723Z" fill="#FFA8A7"/>
<path d="M258.697 153.074H258.644C258.569 153.069 258.496 153.048 258.429 153.014C258.363 152.979 258.304 152.932 258.255 152.875C258.207 152.817 258.171 152.751 258.149 152.679C258.127 152.608 258.119 152.532 258.126 152.458L258.537 148.027C258.55 147.876 258.623 147.736 258.739 147.638C258.856 147.54 259.006 147.493 259.158 147.506C259.309 147.519 259.449 147.592 259.547 147.708C259.645 147.824 259.692 147.975 259.679 148.126L259.26 152.564C259.247 152.704 259.182 152.834 259.078 152.929C258.973 153.023 258.838 153.075 258.697 153.074Z" fill="#F3485C"/>
<path d="M262.298 154.711C262.173 154.713 262.051 154.669 261.955 154.589C261.835 154.497 261.757 154.361 261.737 154.212C261.717 154.062 261.757 153.91 261.849 153.79L264.825 149.938C264.916 149.829 265.044 149.757 265.185 149.737C265.326 149.718 265.469 149.751 265.586 149.831C265.646 149.877 265.696 149.934 265.733 149.999C265.771 150.064 265.795 150.136 265.804 150.21C265.813 150.285 265.807 150.36 265.787 150.433C265.767 150.505 265.732 150.572 265.685 150.631L262.716 154.49C262.666 154.555 262.603 154.607 262.531 154.645C262.459 154.683 262.379 154.706 262.298 154.711Z" fill="#F3485C"/>
<path d="M264.49 158.038C264.355 158.037 264.224 157.989 264.121 157.902C264.018 157.814 263.95 157.693 263.928 157.559C263.906 157.426 263.932 157.289 264.002 157.173C264.071 157.057 264.18 156.97 264.307 156.926L268.745 155.404C268.889 155.354 269.046 155.364 269.182 155.43C269.319 155.497 269.423 155.614 269.472 155.758C269.522 155.901 269.512 156.058 269.446 156.195C269.38 156.331 269.262 156.435 269.118 156.485L264.68 158.007C264.619 158.028 264.555 158.038 264.49 158.038Z" fill="#F3485C"/>
<path d="M249.433 181.788C248.725 184.255 247.149 188.495 247.91 190.558C247.91 190.558 245.627 187.467 248.451 179.809L249.433 181.788Z" fill="#F28F8F"/>
<path d="M158.518 123.333C159.675 123.752 160.702 124.468 161.494 125.411C162.347 126.575 162.72 128.022 162.537 129.453C162.392 130.61 161.867 131.957 161.859 133.115C162.019 134.7 162.364 136.261 162.887 137.766C164.646 143.409 166.824 148.913 169.403 154.231C171.634 159.05 174.275 164.067 175.311 169.327C181.225 170.393 187.27 171.938 189.972 172.532C192.122 172.505 194.263 172.808 196.321 173.43C205.456 176.764 206.445 184.285 209.056 188.845L202.236 195.514C192.987 190.291 173.164 181.05 168.269 178.766C163.374 176.483 161.669 176.049 160.428 173.948C159.377 171.931 158.626 169.772 158.198 167.538C156.79 161.57 156.325 154.947 155.199 148.91C154.597 145.683 153.996 142.455 153.372 139.235C153.136 137.921 152.816 136.625 152.412 135.353C151.81 133.645 150.936 132.046 149.824 130.618C148.012 128.182 146.125 125.814 144.442 123.264C143.744 122.303 143.228 121.222 142.92 120.074C142.69 118.585 142.88 117.062 143.468 115.674C143.947 114.35 144.397 113.063 144.838 111.724C144.939 111.306 145.149 110.922 145.447 110.612C146.361 109.851 147.731 110.742 148.264 111.526C148.614 112.107 149.003 112.664 149.428 113.193C149.757 113.503 150.111 113.786 150.486 114.038C151.609 114.881 152.555 115.937 153.273 117.144C154.034 118.369 154.46 119.686 155.282 120.859C156.141 121.937 157.252 122.787 158.518 123.333Z" fill="#FFA8A7"/>
<path d="M162.727 137.233L156.272 155.754C156.82 159.735 157.33 163.777 158.221 167.553C158.649 169.787 159.4 171.946 160.451 173.963C161.692 176.064 163.405 176.483 168.292 178.782L168.558 178.903L168.886 179.056L169.411 179.307L169.822 179.497L170.264 179.703L170.713 179.916L172.646 180.829L172.905 180.951L173.819 181.377L174.055 181.492L175.189 182.024H175.265L176.574 182.641H176.62L178.546 175.333C178.363 175.394 169.19 173.811 169.19 173.811C170.164 171.753 170.683 169.51 170.713 167.233C170.819 164.813 170.781 160.382 170.713 156.98C170.264 156.043 169.822 155.099 169.396 154.178C166.817 148.862 164.638 143.361 162.88 137.72L162.727 137.233Z" fill="#F28F8F"/>
<path d="M200.394 175.394C198.741 173.943 196.701 173.004 194.524 172.692C192.066 172.235 191.198 172.364 189.356 171.984C187.513 171.603 184.567 170.948 184.567 170.948C184.567 170.948 182.961 170.819 180.365 172.341C177.769 173.864 173.879 177.769 173.339 182.824C172.798 187.878 175.067 190.246 175.067 190.246L190.627 195.004L200.394 175.394Z" fill="#F3485C"/>
<path opacity="0.3" d="M200.394 175.394C198.741 173.943 196.701 173.004 194.524 172.692C192.066 172.235 191.198 172.364 189.356 171.984C187.513 171.603 184.567 170.948 184.567 170.948C184.567 170.948 182.961 170.819 180.365 172.341C177.769 173.864 173.879 177.769 173.339 182.824C172.798 187.878 175.067 190.246 175.067 190.246L190.627 195.004L200.394 175.394Z" fill="white"/>
<path opacity="0.1" d="M194.387 177.83C190.376 174.564 183.806 176.566 183.806 176.566C183.806 176.566 178.767 175.432 177.001 175.188C176.402 175.844 175.859 176.55 175.379 177.297L177.366 180.616L184.636 182.055C184.636 182.055 198.43 181.058 194.387 177.83Z" fill="black"/>
<path d="M198.353 179.786L193.573 190.931L188.549 202.654C173.324 197.432 155.678 188.32 152.291 183.806C150.532 181.453 153.585 169.144 156.904 157.885C159.599 148.796 162.461 140.377 163.116 138.489C163.141 138.44 163.162 138.389 163.176 138.337C163.159 138.117 163.058 137.913 162.895 137.766C162.365 136.265 162.018 134.706 161.859 133.122C161.859 131.965 162.385 130.618 162.537 129.461C162.576 129.15 162.589 128.837 162.575 128.524C163.054 128.41 163.54 128.324 164.029 128.265C165.163 128.151 166.259 127.885 167.394 127.793C169.502 127.611 172.136 128.326 172.936 130.496C173.25 131.413 173.342 132.391 173.202 133.35C173.172 133.625 173.133 133.899 173.088 134.173C172.639 136.662 171.101 138.961 170.697 141.488C170.218 145.142 169.99 149.991 169.731 154.932C169.312 163.047 168.81 171.397 166.945 175.082C172.401 175.723 177.803 176.767 183.106 178.203C191.32 175.546 198.353 179.786 198.353 179.786Z" fill="#FFA8A7"/>
<path d="M162.537 129.468C162.385 130.625 161.867 131.965 161.859 133.122C162.017 134.708 162.365 136.27 162.895 137.773C163.058 137.921 163.159 138.125 163.176 138.344C163.208 137.099 163.111 135.855 162.887 134.629C162.666 132.94 163.755 130.367 163.587 128.334C163.26 128.387 162.925 128.448 162.575 128.532C162.589 128.845 162.576 129.158 162.537 129.468Z" fill="#F28F8F"/>
<path opacity="0.05" d="M159.659 176.11C164.364 176.49 166.945 175.074 166.945 175.074C167.663 173.447 168.155 171.728 168.406 169.966C167.013 174.092 159.659 176.11 159.659 176.11Z" fill="black"/>
<path d="M198.818 179.451C195.83 177.981 192.574 177.134 189.249 176.962C186.204 176.871 184.286 177.723 183.075 177.792C181.865 177.86 180.259 176.863 176.14 176.17C176.14 176.17 174.983 175.82 172.7 177.297C170.416 178.774 168.284 182.55 168.132 184.415C168.132 184.415 173.697 187.825 173.362 188.13C173.027 188.434 167.394 186.607 167.394 186.607C166.89 187.984 166.69 189.454 166.808 190.916C167.042 192.347 167.526 193.725 168.239 194.988C168.239 194.988 183.403 202.601 189.142 202.92C194.882 203.24 198.818 179.451 198.818 179.451Z" fill="#F3485C"/>
<path opacity="0.5" d="M198.818 179.451C195.83 177.981 192.574 177.134 189.249 176.962C186.204 176.871 184.286 177.723 183.075 177.792C181.865 177.86 180.259 176.863 176.14 176.17C176.14 176.17 174.983 175.82 172.7 177.297C170.416 178.774 168.284 182.55 168.132 184.415C168.132 184.415 173.697 187.825 173.362 188.13C173.027 188.434 167.394 186.607 167.394 186.607C166.89 187.984 166.69 189.454 166.808 190.916C167.042 192.347 167.526 193.725 168.239 194.988C168.239 194.988 183.403 202.601 189.142 202.92C194.882 203.24 198.818 179.451 198.818 179.451Z" fill="white"/>
<path d="M223.551 162.872C219.38 163.511 215.312 164.701 211.454 166.411C208.653 167.85 207.321 177.289 205.425 180.053C203.97 178.19 202.258 176.542 200.34 175.158C198.521 174.99 192.317 177.792 188.845 184.582C185.153 191.806 185.884 199.091 188.29 203.118C193.862 204.846 200.47 207.161 211.576 206.331C216.646 205.958 223.931 201.763 227.433 199.175C229.717 197.493 230.691 196.678 232.556 195.171C240.404 193.55 240.686 186.706 239.278 180.905C237.588 173.978 237.116 169.844 234.368 165.338C233.157 163.321 228.879 162.186 223.551 162.872Z" fill="#455A64"/>
<path d="M229.138 194.965C226.976 196.298 223.733 196.343 220.764 195.262C217.796 194.181 216.098 190.786 216.197 188.13C216.197 188.13 214.53 194.219 219.889 196.503C225.591 198.977 229.024 195.704 229.138 194.965Z" fill="#22252C"/>
<path d="M242.718 158.813C248.731 156.323 251.586 149.429 249.096 143.417C246.605 137.404 239.712 134.549 233.699 137.039C227.686 139.53 224.831 146.423 227.322 152.436C229.812 158.449 236.705 161.304 242.718 158.813Z" fill="#22252C"/>
<path d="M225.88 156.317L223.048 164.196L218.153 165.315C218.641 166.739 223.033 178.02 225.461 178.949C227.578 179.71 233.256 179.893 234.368 177.145C234.786 176.117 233.142 167.667 233.142 167.667L233.363 167.089L225.88 156.317Z" fill="#FFA8A7"/>
<path d="M237.816 158.898C238.577 158.373 239.339 157.802 240.321 158.327C240.743 158.589 241.106 158.937 241.386 159.347C242.756 161.187 243.466 163.434 243.404 165.726C243.364 167.059 243.062 168.371 242.513 169.586C242.003 170.72 241.135 171.618 240.777 172.813C240.29 174.427 240.64 176.155 240.823 177.838C240.96 178.678 240.926 179.537 240.723 180.363C240.52 181.19 240.153 181.967 239.643 182.649C239.474 181.269 239.054 179.933 238.402 178.705C237.728 177.709 236.963 176.776 236.119 175.919C235.028 174.738 234.11 173.408 233.393 171.968C232.993 171.157 232.684 170.305 232.472 169.426L233.393 167.089C234.094 165.475 234.292 164.295 234.916 162.666C235.229 161.829 235.616 161.021 236.073 160.253C236.555 159.687 237.149 159.225 237.816 158.898Z" fill="#22252C"/>
<path d="M243.442 142.927L242.681 143.292C242.681 143.292 234.307 138.725 229.61 141.245C224.913 143.764 225.233 149.215 225.553 151.27L225.4 151.141C225.181 150.454 224.832 149.816 224.373 149.26C223.688 148.438 220.901 147.905 219.546 150.364C218.29 152.648 219.851 155.739 221.526 156.85C221.7 156.968 221.886 157.067 222.081 157.147C222.685 157.405 223.336 157.535 223.992 157.528C224.399 157.556 224.804 157.454 225.149 157.236C225.494 157.019 225.761 156.697 225.91 156.317L226.824 159.56C227.105 161.166 227.631 162.719 228.384 164.166C229.283 165.132 231.84 166.739 232.373 166.777L233.188 167.096C235.685 167.934 238.273 168.725 239.735 168.345C241.196 167.964 244.256 166.32 245.824 157.939C247.613 148.012 245.147 144.335 243.442 142.927Z" fill="#FFA8A7"/>
<path d="M222.584 145.919C222.584 145.728 222.508 144.465 222.584 144.297C224.388 137.948 228.78 135.094 236.4 135.071C238.885 135.241 241.29 136.025 243.396 137.355C246.548 139.296 245.566 143.703 244.241 147.03C243.892 148.016 243.294 148.895 242.506 149.583C241.718 150.271 240.766 150.745 239.742 150.958C239.587 151.004 239.422 151.007 239.265 150.966C239.109 150.926 238.966 150.844 238.851 150.73C238.758 150.544 238.723 150.334 238.753 150.128L238.935 146.802C237.805 148.649 236.265 150.211 234.434 151.367C232.603 152.524 230.53 153.243 228.377 153.47C227.846 153.546 227.306 153.517 226.786 153.386C225.735 153.067 225.789 152.374 225.461 151.514C225.252 150.935 224.978 150.381 224.647 149.862C224.213 149.222 223.337 148.979 222.873 148.408C222.651 148.037 222.51 147.624 222.46 147.194C222.411 146.765 222.453 146.33 222.584 145.919Z" fill="#22252C"/>
<path d="M226.596 158.418C226.596 158.418 226.801 163.199 227.836 164.706C229.033 166.399 230.748 167.655 232.724 168.284L233.34 167.089C232.64 166.819 231.956 166.509 231.292 166.16C230.491 165.728 229.742 165.204 229.062 164.599C227.859 163.45 226.877 159.179 226.596 158.418Z" fill="#F28F8F"/>
<path d="M232.746 166.838C232.746 166.838 230.569 172.874 229.755 173.894C229.252 174.526 228.148 174.313 227.471 173.978C227.471 173.978 228.948 175.249 230.029 174.244C231.11 173.24 233.401 167.089 233.401 167.089L232.746 166.838Z" fill="#F28F8F"/>
<path d="M237.207 155.975C237.185 156.183 237.101 156.381 236.967 156.543C236.833 156.705 236.655 156.824 236.454 156.885C236.253 156.946 236.039 156.948 235.838 156.888C235.636 156.829 235.456 156.712 235.321 156.552C235.185 156.392 235.099 156.195 235.074 155.987C235.049 155.778 235.086 155.567 235.18 155.379C235.274 155.191 235.421 155.035 235.602 154.93C235.784 154.825 235.993 154.775 236.202 154.787C236.346 154.799 236.487 154.839 236.616 154.905C236.744 154.971 236.859 155.061 236.952 155.172C237.045 155.282 237.116 155.41 237.16 155.548C237.204 155.685 237.22 155.831 237.207 155.975Z" fill="#22252C"/>
<path d="M236.956 152.298L234.398 152.922C234.326 152.575 234.388 152.212 234.574 151.91C234.759 151.607 235.053 151.386 235.395 151.293C235.564 151.252 235.74 151.245 235.911 151.274C236.082 151.303 236.246 151.366 236.392 151.46C236.538 151.554 236.663 151.677 236.76 151.821C236.857 151.965 236.924 152.127 236.956 152.298Z" fill="#22252C"/>
<path d="M235.974 161.783L238.958 163.678C238.843 163.881 238.688 164.058 238.502 164.2C238.316 164.341 238.104 164.443 237.878 164.5C237.652 164.557 237.416 164.567 237.186 164.531C236.955 164.494 236.735 164.411 236.537 164.287C236.139 164.023 235.858 163.615 235.753 163.148C235.648 162.682 235.728 162.193 235.974 161.783Z" fill="#F28F8F"/>
<path d="M245.391 153.211L243 152.062C243.067 151.902 243.165 151.758 243.29 151.637C243.414 151.517 243.561 151.424 243.723 151.362C243.885 151.301 244.058 151.273 244.23 151.281C244.403 151.289 244.573 151.332 244.728 151.407C245.049 151.565 245.297 151.841 245.42 152.177C245.544 152.513 245.533 152.883 245.391 153.211Z" fill="#22252C"/>
<path d="M244.652 155.975C244.646 156.119 244.612 156.26 244.552 156.391C244.491 156.522 244.405 156.639 244.299 156.737C244.193 156.834 244.069 156.91 243.933 156.959C243.798 157.009 243.654 157.031 243.51 157.025C243.219 156.998 242.951 156.857 242.763 156.634C242.575 156.41 242.482 156.121 242.505 155.83C242.511 155.686 242.546 155.545 242.606 155.415C242.667 155.285 242.753 155.168 242.859 155.071C242.965 154.974 243.09 154.899 243.225 154.85C243.36 154.801 243.504 154.78 243.647 154.787C243.938 154.812 244.206 154.951 244.395 155.174C244.583 155.396 244.675 155.684 244.652 155.975Z" fill="#22252C"/>
<path d="M240.298 155.404L239.278 161.859L242.498 161.456L240.298 155.404Z" fill="#F28F8F"/>
<path d="M214.126 165.315C207.077 167.028 204.656 170.172 203.781 181.53C203.355 187.079 202.464 200.774 202.868 203.689C203.416 207.648 203.674 209.779 205.973 211.439C209.536 214.042 226.839 223.908 231.308 225.438C234.984 226.702 239.575 227.166 243.206 225.56C243.883 225.263 244.622 224.684 244.469 223.969C244.417 223.784 244.321 223.614 244.188 223.475C244.055 223.335 243.891 223.231 243.708 223.169C243.348 223.045 242.971 222.973 242.589 222.956C240.043 222.711 237.548 222.082 235.19 221.091C234.954 220.992 234.672 220.764 234.802 220.543C234.845 220.487 234.9 220.443 234.964 220.412C235.027 220.382 235.097 220.367 235.167 220.368C236.69 220.132 238.357 219.98 239.529 218.846C240.29 218.084 239.666 217.323 237.245 217.513C234.825 217.704 231.871 216.265 228.795 216.661L213.753 204.268L215.55 183.783C215.55 183.783 217.963 168.977 214.126 165.315Z" fill="#FFA8A7"/>
</svg>
